<svg height="80" viewBox="0 0 80 80" width="80" xmlns="http://www.w3.org/2000/svg"><g fill="#323848" fill-rule="evenodd"><path d="m54.862 45.106-10.861-6.674a1.198 1.198 0 0 0 -.438-.16l-3.401-.6a1.183 1.183 0 0 0 -1.358.95c-.11.63.322 1.247.95 1.358l3.21.566 10.671 6.557c.52.32 1.235.165 1.581-.338.371-.54.204-1.316-.354-1.66z"/><path d="m79.611 45.482a1.172 1.172 0 0 0 -1.656-.056l-4.752 4.44-21.771-21.481 28.124-26.358a1.172 1.172 0 0 0 -1.602-1.71l-29.014 27.19a1.184 1.184 0 0 0 -.022 1.69l1.926 1.9-.615.543-12.872-1.108a1.174 1.174 0 0 0 -.586.1l-10.2 4.646a1.2 1.2 0 0 0 -.09-.021l-5.866-1.035.474-1.213a1.172 1.172 0 0 0 -.656-1.515l-18.752-7.501a1.171 1.171 0 1 0 -.87 2.176l17.672 7.07-10.415 26.612-6.431-2.278a1.172 1.172 0 1 0 -.783 2.21l7.501 2.657a1.183 1.183 0 0 0 1.483-.678l1.74-4.448 4.56 2.556-.502.815a4.928 4.928 0 0 0 1.604 6.774 4.952 4.952 0 0 0 4.103.49 4.945 4.945 0 0 0 2.28 3.449 4.952 4.952 0 0 0 4.104.49 4.946 4.946 0 0 0 2.28 3.448 4.944 4.944 0 0 0 4.103.492 4.945 4.945 0 0 0 2.28 3.447c1.782 1.099 4.14.935 5.745-.41.404-.34.753-.745 1.03-1.194l.8-1.296.658.404c1.783 1.096 4.14.927 5.743-.421.404-.34.752-.746 1.028-1.195.55-.895.777-1.897.717-2.872.372.09.753.137 1.137.137a4.962 4.962 0 0 0 4.203-2.347c.537-.874.782-1.87.72-2.872.371.09.751.137 1.134.137a4.961 4.961 0 0 0 4.203-2.346c.537-.874.782-1.87.72-2.874a4.924 4.924 0 0 0 5.338-2.208 4.928 4.928 0 0 0 -1.617-6.77l-.803-.494 2.693-2.815 2.52 2.486c.442.436 1.17.446 1.623.022l5.574-5.209a1.172 1.172 0 0 0 .055-1.656zm-57.591 19.143a2.582 2.582 0 0 1 -3.548.84 2.581 2.581 0 0 1 -.84-3.548l6.564-10.64a2.591 2.591 0 0 1 3.505-.866c1.242.734 1.585 2.437.84 3.646l-6.52 10.568zm6.384 3.938a2.581 2.581 0 0 1 -3.549.84c-1.195-.737-1.579-2.35-.84-3.548l5.251-8.51a2.591 2.591 0 0 1 3.506-.867c1.242.734 1.585 2.437.839 3.646l-5.207 8.44zm6.384 3.939c-.362.586-.93.996-1.6 1.155a2.561 2.561 0 0 1 -1.949-.314c-1.195-.738-1.58-2.352-.84-3.549l3.938-6.383a2.591 2.591 0 0 1 3.506-.867c1.242.734 1.585 2.437.839 3.646zm8.965-.245-2.582 4.184c-.738 1.195-2.351 1.579-3.548.84-1.196-.737-1.58-2.351-.84-3.548l2.625-4.256a2.59 2.59 0 0 1 3.505-.866c1.243.734 1.585 2.437.84 3.646zm21.35-20.859-5.81-3.57a1.192 1.192 0 0 0 -1.612.385 1.192 1.192 0 0 0 .385 1.612l8.656 5.319a2.582 2.582 0 0 1 .847 3.547 2.582 2.582 0 0 1 -3.547.847l-9.283-5.705a1.172 1.172 0 1 0 -1.227 1.997l7.153 4.396c1.197.735 1.584 2.348.847 3.546-.735 1.197-2.348 1.584-3.546.847l-6.483-3.983a1.172 1.172 0 1 0 -1.227 1.997l4.352 2.674c1.197.736 1.584 2.348.847 3.547-.735 1.197-2.348 1.584-3.547.847 0 0-3.827-2.35-3.863-2.367a1.172 1.172 0 0 0 -1.122 2.055l1.628 1a2.581 2.581 0 0 1 .847 3.547c-.735 1.196-2.348 1.583-3.547.847l-.654-.402.551-.894a5.074 5.074 0 0 0 .6-3.858 4.839 4.839 0 0 0 -2.241-3.037 4.877 4.877 0 0 0 -2.818-.664 5.08 5.08 0 0 0 -.012-2.365 4.839 4.839 0 0 0 -2.24-3.037 4.876 4.876 0 0 0 -2.819-.665c.484-2.076-.406-4.31-2.252-5.402a4.879 4.879 0 0 0 -2.818-.665c.483-2.076-.407-4.31-2.253-5.402-2.292-1.355-5.294-.612-6.693 1.654l-4.83 7.827-4.93-2.762 7.302-18.663 3.977.702a4.928 4.928 0 0 0 -.652 5.133 4.929 4.929 0 0 0 6.52 2.439l6.864-3.126c.58-.265.845-.971.58-1.553a1.183 1.183 0 0 0 -1.552-.58l-6.864 3.126a2.581 2.581 0 0 1 -3.415-1.278 2.581 2.581 0 0 1 1.278-3.416l10.983-5.002 13.065 1.125a1.173 1.173 0 0 0 .876-.289l1.113-.982 15.653 15.446-3.068 3.205z" fill-rule="nonzero"/></g></svg>