<svg height="480pt" viewBox="0 0 480 480.47816" width="480pt" xmlns="http://www.w3.org/2000/svg"><path d="m466.441406 201.441406-79.199218 79.199219-45.199219-45.28125 34.160156-33.917969c2.71875-3.175781 2.535156-7.90625-.421875-10.863281-2.953125-2.953125-7.683594-3.136719-10.859375-.417969l-34.238281 33.839844-22.5625-22.640625 79.121094-79.199219c3.101562-3.121094 3.101562-8.160156 0-11.28125-3.121094-3.101562-8.160157-3.101562-11.28125 0l-84.878907 84.882813c-1.515625 1.5-2.367187 3.546875-2.367187 5.679687 0 2.132813.851562 4.175782 2.367187 5.679688l11.359375 11.277344-11.359375 11.363281c-13.429687-13.441407-34.460937-15.582031-50.320312-5.121094l-6.238281-6.242187c-7.496094-7.476563-17.652344-11.675782-28.242188-11.679688-5.003906 0-9.96875.921875-14.640625 2.722656l-13.679687-13.679687 5.679687-5.601563c1.515625-1.503906 2.367187-3.546875 2.367187-5.679687 0-2.132813-.851562-4.179688-2.367187-5.679688l-79.4375-79.199219c-3.136719-3.117187-8.207031-3.097656-11.320313.039063-3.117187 3.136719-3.097656 8.203125.039063 11.320313l73.519531 73.519531-5.679687 5.597656-40 39.601563-28.238281-28.320313c-1.503907-1.515625-3.546876-2.367187-5.679688-2.367187s-4.179688.851562-5.679688 2.367187c-3.105468 3.121094-3.105468 8.160156 0 11.28125l28.316407 28.320313-11.359375 11.277343-10.640625 11.761719-73.519531-73.839844c-1.5-1.515625-3.546876-2.367187-5.679688-2.367187s-4.175781.851562-5.679688 2.367187c-3.101562 3.121094-3.101562 8.160156 0 11.28125l79.199219 79.199219c1.511719 1.496094 3.554688 2.332031 5.679688 2.320313 2.128906.011718 4.171875-.824219 5.683593-2.320313l11.039063-11.28125 11.277344 11.28125c-15.613281 15.621094-15.613281 40.9375 0 56.558594l15.042969 14.800781c1.5 1.515625 3.546874 2.367188 5.679687 2.367188s4.175781-.851563 5.679687-2.367188c3.101563-3.121094 3.101563-8.160156 0-11.28125l-14.800781-14.796875c-4.519531-4.503906-7.058593-10.621094-7.058593-17 0-6.382813 2.539062-12.5 7.058593-17l5.601563-5.601563 56.636718-56.640624c9.507813-9.019532 24.414063-9.019532 33.921876 0l50.878906 50.878906c2.71875 3.175781 2.535156 7.90625-.417969 10.863281-2.957031 2.953125-7.6875 3.136719-10.859375.417969l-36.882812-36.878906c-3.15625-3.136719-8.261719-3.121094-11.398438.039062s-3.121094 8.261719.039062 11.398438l36.878907 36.882812c6.859375 6.910156 17.210937 8.996094 26.207031 5.277344 9-3.71875 14.859375-12.503906 14.835938-22.238282-.007813-6.363281-2.539063-12.464843-7.042969-16.960937l-32.957031-32.960937c9.1875-4.164063 19.984374-2.328126 27.277343 4.640624l67.921875 67.921876c4.472656 4.507812 6.976563 10.609374 6.960938 16.960937.015625 6.351563-2.488282 12.449219-6.960938 16.957031l-22.640625 22.640625-23.199219 23.121094-16.402343 16.480469-45.277344 45.277344c-3.121094 3.101562-8.160156 3.101562-11.28125 0-3.101563-3.117188-3.101563-8.15625 0-11.277344l51.28125-51.042969c2.28125-1.953125 3.277344-5.023437 2.574219-7.945313-.703125-2.921874-2.984375-5.203124-5.90625-5.90625-2.925782-.703124-5.992188.289063-7.949219 2.574219l-50.960937 50.878907c-3.171876 2.71875-7.902344 2.535156-10.859376-.417969-2.953124-2.957031-3.136718-7.6875-.417968-10.863281l50.878906-50.878907c1.515625-1.5 2.367188-3.546875 2.367188-5.679687 0-2.132813-.851563-4.175782-2.367188-5.679688-3.121094-3.101562-8.160156-3.101562-11.28125 0l-50.960938 50.960938c-3.117187 3.101562-8.15625 3.101562-11.277343 0-1.515625-1.503906-2.367188-3.546875-2.367188-5.679688 0-2.132812.851563-4.179687 2.367188-5.679687l50.878906-50.882813c1.515625-1.5 2.367187-3.546875 2.367187-5.679687 0-2.132813-.851562-4.175781-2.367187-5.679688-3.121094-3.101562-8.160156-3.101562-11.28125 0l-50.957031 50.960938c-3.136719 3.113281-8.207032 3.097656-11.320313-.039063-3.117187-3.136718-3.097656-8.207031.039063-11.320312l61.519531-61.441406c3.136719-3.136719 3.136719-8.222657 0-11.359376-3.136719-3.136718-8.222656-3.136718-11.359375 0l-61.839844 61.679688c-9.359375 9.371094-9.359375 24.550781 0 33.921875 4.132813 4.21875 9.699219 6.734375 15.597656 7.039063.714844 12.179687 10.457032 21.886718 22.640626 22.558593.675781 12.214844 10.429687 21.964844 22.640624 22.640625.230469 6.015625 2.714844 11.730469 6.960938 16 7.210938 7.195313 18.179688 9.058594 27.359375 4.640625l6.558594 6.640625c6.738281 6.742188 16.832031 8.859375 25.714843 5.390625 8.878907-3.46875 14.863282-11.863281 15.246094-21.390625 6.027344-.183594 11.757813-2.675781 16-6.960937 4.15625-4.171875 6.632813-9.722657 6.960938-15.601563 12.214844-.671875 21.964844-10.425781 22.640625-22.640625 9.527343-.378906 17.921875-6.367187 21.390625-15.246093 3.472656-8.882813 1.355468-18.972657-5.390625-25.710938l-5.679688-5.601562 11.359375-11.359376c7.476563-7.496093 11.675782-17.652343 11.679688-28.242187-.1875-7.917969-2.722656-15.601563-7.28125-22.078125l12.082031-12.078125 5.679687 5.679687c3.121094 3.101563 8.160157 3.101563 11.28125 0l84.636719-84.882812c3.101563-3.117188 3.101563-8.160156 0-11.277344-1.5-1.515625-3.546875-2.367187-5.679687-2.367187-2.132813 0-4.175782.851562-5.679688 2.367187zm-350.71875 56.558594 50.960938-50.878906 11.277344 11.277344-50.878907 50.960937zm158.398438 203.679688c-3.121094 3.101562-8.160156 3.101562-11.277344 0l-5.679688-5.679688 11.359376-11.28125 5.597656 5.601562c1.515625 1.5 2.367187 3.546876 2.367187 5.679688s-.851562 4.179688-2.367187 5.679688zm22.640625-22.640626c-3.121094 3.101563-8.160157 3.101563-11.28125 0l-5.277344-5.679687 5.679687-5.679687 5.597657-5.601563 5.683593 5.601563c1.511719 1.503906 2.363282 3.546874 2.363282 5.679687s-.851563 4.179687-2.363282 5.679687zm22.640625-22.640624c-3.121094 3.101562-8.160156 3.101562-11.28125 0l-5.679688-5.679688 11.28125-11.277344 5.679688 5.679688c3.101562 3.121094 3.101562 8.160156 0 11.277344zm22.640625-22.636719c-1.503907 1.511719-3.546875 2.363281-5.679688 2.363281-2.132812 0-4.179687-.851562-5.679687-2.363281l-5.601563-5.683594 11.121094-11.277344 5.679687 5.679688c3.144532 3.074219 3.21875 8.117187.160157 11.28125zm11.277343-101.839844-50.878906-50.882813 11.28125-11.277343 50.960938 50.878906zm0 0"/><path d="m152.203125 128h176c4.417969 0 8-3.582031 8-8v-112c0-4.417969-3.582031-8-8-8h-176c-4.417969 0-8 3.582031-8 8v112c0 4.417969 3.582031 8 8 8zm8-32c8.835937 0 16 7.164062 16 16h-16zm160 16h-16c0-8.835938 7.164063-16 16-16zm0-80c-8.835937 0-16-7.164062-16-16h16zm0 16v32c-17.675781 0-32 14.328125-32 32h-96c0-17.671875-14.328125-32-32-32v-32c17.671875 0 32-14.328125 32-32h96c0 17.671875 14.324219 32 32 32zm-160-32h16c0 8.835938-7.164063 16-16 16zm0 0"/><path d="m240.203125 96c17.671875 0 32-14.328125 32-32s-14.328125-32-32-32c-17.675781 0-32 14.328125-32 32s14.324219 32 32 32zm0-48c8.835937 0 16 7.164062 16 16s-7.164063 16-16 16-16-7.164062-16-16 7.164063-16 16-16zm0 0"/><path d="m304.203125 64c0 4.417969-3.582031 8-8 8s-8-3.582031-8-8 3.582031-8 8-8 8 3.582031 8 8zm0 0"/><path d="m192.203125 64c0 4.417969-3.582031 8-8 8s-8-3.582031-8-8 3.582031-8 8-8 8 3.582031 8 8zm0 0"/><path d="m478.84375 51.601562-32-48c-1.488281-2.214843-3.976562-3.539062-6.640625-3.539062s-5.15625 1.324219-6.640625 3.539062l-32 48c-.875 1.300782-1.347656 2.832032-1.359375 4.398438v32c0 4.417969 3.582031 8 8 8s8-3.582031 8-8v-29.601562l24-36 24 36v85.601562c0 4.417969 3.582031 8 8 8s8-3.582031 8-8v-88c-.011719-1.566406-.484375-3.097656-1.359375-4.398438zm0 0"/><path d="m448.203125 112v-48c0-4.417969-3.582031-8-8-8s-8 3.582031-8 8v48c0 4.417969 3.582031 8 8 8s8-3.582031 8-8zm0 0"/><path d="m8.203125 72h8v96c0 4.417969 3.582031 8 8 8s8-3.582031 8-8v-104c0-4.417969-3.582031-8-8-8h-.480469l24.480469-34.238281 24.480469 34.238281h-.480469c-4.417969 0-8 3.582031-8 8v16c0 4.417969 3.582031 8 8 8s8-3.582031 8-8v-8h8c2.988281-.015625 5.71875-1.691406 7.082031-4.351562 1.363282-2.65625 1.128906-5.855469-.601562-8.289063l-40-56c-1.507813-2.078125-3.914063-3.3085938-6.480469-3.3085938s-4.976563 1.2304688-6.480469 3.3085938l-40 56c-1.7343748 2.433594-1.964844 5.632813-.601562 8.289063 1.363281 2.660156 4.09375 4.335937 7.082031 4.351562zm0 0"/><path d="m48.203125 112v24c0 4.417969 3.582031 8 8 8s8-3.582031 8-8v-24c0-4.417969-3.582031-8-8-8s-8 3.582031-8 8zm0 0"/></svg>