<svg height="80" viewBox="0 0 80 80" width="80" xmlns="http://www.w3.org/2000/svg"><g fill="#323848" fill-rule="evenodd"><path d="m41.29 64.442h-2.58a2.583 2.583 0 0 1 -2.581-2.58h-2.58a5.166 5.166 0 0 0 5.16 5.161v2.58h2.581v-2.58a5.166 5.166 0 0 0 5.162-5.161 5.166 5.166 0 0 0 -5.162-5.162h-2.58a2.583 2.583 0 0 1 -2.581-2.58 2.583 2.583 0 0 1 2.58-2.58h2.581a2.583 2.583 0 0 1 2.581 2.58h2.58a5.166 5.166 0 0 0 -5.16-5.161v-2.581h-2.581v2.58a5.166 5.166 0 0 0 -5.162 5.162 5.166 5.166 0 0 0 5.162 5.161h2.58a2.583 2.583 0 0 1 2.581 2.58 2.583 2.583 0 0 1 -2.58 2.581z"/><path d="m40 74.765c9.249 0 16.774-7.525 16.774-16.774 0-9.25-7.525-16.774-16.774-16.774s-16.774 7.525-16.774 16.773 7.524 16.775 16.774 16.775zm0-30.968c7.826 0 14.194 6.368 14.194 14.194s-6.368 14.193-14.194 14.193-14.194-6.367-14.194-14.193 6.368-14.194 14.194-14.194z" fill-rule="nonzero"/><path d="m0 36.055v43.871h80v-43.87h-80zm77.42 41.29h-74.84v-38.708h74.84v38.71z" fill-rule="nonzero"/><path d="m7.742 43.797h6.452v-2.58h-9.034v9.032h2.58zm64.516 6.452h2.58v-9.032h-9.032v2.58h6.452zm-58.064 21.935h-6.452v-6.451h-2.58v9.032h9.032zm60.645-6.451h-2.58v6.451h-6.453v2.581h9.033zm-32.123-34.125 2.309 1.155 1.73-3.464a9.371 9.371 0 0 0 .986-4.174 9.382 9.382 0 0 0 -4.53-8.002l-4.501-2.701v4.65a23.86 23.86 0 0 1 -.72 5.82 5.93 5.93 0 0 1 -1.861-4.32v-2.088l-3.373 1.685a7.863 7.863 0 0 0 -4.369 7.07c0 .853.137 1.694.405 2.501l.95 2.852 2.45-.815-.952-2.853a5.332 5.332 0 0 1 -.272-1.684 5.296 5.296 0 0 1 2.812-4.694 8.506 8.506 0 0 0 3.564 5.117l2.056 1.37.534-1.604c.9-2.699 1.356-5.512 1.356-8.357v-.093l.593.356a6.788 6.788 0 0 1 3.278 5.79 6.766 6.766 0 0 1 -.714 3.02l-1.73 3.463z"/><path d="m21.77 32.764.74.494 1.43-2.147-.74-.494a5.729 5.729 0 0 1 -2.555-4.776 5.768 5.768 0 0 1 2.787-4.921 7.589 7.589 0 0 0 3.66-6.187l6.456 2.583v-1.906c0-3.621.894-7.184 2.597-10.368l.61 1.018a16.832 16.832 0 0 0 6.25 6.046 14.23 14.23 0 0 1 7.318 12.435v3.605l2.48-1.657a13.23 13.23 0 0 0 4.264-4.666l1.357 1.81c.6.8.93 1.79.93 2.79a4.644 4.644 0 0 1 -2.07 3.871l-1.225.817 1.432 2.147 1.224-.817a7.216 7.216 0 0 0 3.22-6.018 7.274 7.274 0 0 0 -1.446-4.339l-4.16-5.547-.78 2.336a10.65 10.65 0 0 1 -2.704 4.282 16.811 16.811 0 0 0 -8.587-13.306 14.249 14.249 0 0 1 -5.29-5.117l-2.839-4.732-1.66 2.763a24.57 24.57 0 0 0 -3.43 10.77l-6.523-2.61v3.523a4.993 4.993 0 0 1 -2.412 4.261 8.365 8.365 0 0 0 -4.04 7.134 8.3 8.3 0 0 0 3.705 6.923z"/></g></svg>