<?xml version="1.0" standalone="no"?>
<!DOCTYPE svg PUBLIC "-//W3C//DTD SVG 20010904//EN"
 "http://www.w3.org/TR/2001/REC-SVG-20010904/DTD/svg10.dtd">
<svg version="1.0" xmlns="http://www.w3.org/2000/svg"
 width="265.000000pt" height="255.000000pt" viewBox="0 0 265.000000 255.000000"
 preserveAspectRatio="xMidYMid meet">
<metadata>
Created by potrace 1.16, written by Peter Selinger 2001-2019
</metadata>
<g transform="translate(0.000000,255.000000) scale(0.100000,-0.100000)"
fill="#000000" stroke="none">
<path d="M460 2537 c-51 -16 -105 -75 -118 -130 -8 -30 -12 -158 -12 -371 l0
-326 -145 0 c-172 0 -185 -6 -185 -88 0 -69 34 -129 95 -167 l48 -30 249 -3
248 -3 0 -710 0 -709 30 0 c43 0 90 22 124 59 37 39 55 39 92 0 70 -74 136
-77 209 -10 25 23 50 41 58 41 7 0 32 -18 55 -40 71 -65 146 -64 212 5 42 43
58 44 96 4 70 -74 136 -77 209 -10 25 23 50 41 56 41 6 0 31 -18 56 -40 74
-65 147 -63 213 5 42 43 58 44 96 4 38 -41 75 -59 119 -59 l35 0 0 175 0 175
135 0 c149 0 182 9 203 55 26 58 6 151 -37 175 -11 5 -83 10 -160 10 l-140 0
-3 893 c-3 994 2 928 -73 1000 -71 69 -47 67 -934 66 -549 -1 -807 -4 -831
-12z m104 -81 c18 -7 42 -26 54 -41 22 -27 22 -31 22 -471 l0 -444 -134 0
-134 0 19 37 c18 35 19 64 19 433 0 443 1 448 70 482 42 22 42 22 84 4z m1562
-5 c25 -12 50 -33 65 -57 l24 -39 3 -882 2 -883 -540 0 -540 0 -86 -40 c-48
-22 -100 -40 -115 -40 -27 0 -29 -3 -29 -40 0 -37 2 -40 29 -40 16 0 68 -18
116 -40 l87 -40 539 0 539 0 0 -121 0 -121 -31 26 c-62 52 -128 48 -195 -14
-24 -22 -48 -40 -54 -40 -6 0 -30 18 -55 41 -73 67 -147 65 -214 -6 -18 -19
-38 -35 -45 -35 -7 0 -25 14 -42 31 -71 75 -145 78 -219 10 -24 -22 -49 -41
-55 -41 -6 0 -30 18 -54 40 -73 67 -136 67 -206 0 -23 -22 -47 -40 -54 -40 -7
0 -25 14 -42 31 -69 73 -142 79 -211 16 l-23 -20 0 1149 c0 1000 -2 1153 -15
1178 -8 15 -15 30 -15 32 0 2 314 4 698 4 658 0 699 -1 738 -19z m-1796 -836
c0 -9 -7 -29 -14 -44 -45 -86 -177 -86 -222 0 -29 57 -26 59 111 59 106 0 125
-2 125 -15z m1960 -1145 l0 -40 -557 0 c-492 0 -562 2 -600 16 -24 9 -43 20
-43 24 0 4 17 15 38 23 32 14 114 16 600 16 l562 1 0 -40z m275 0 l0 -35 -97
-3 -98 -3 0 41 0 41 98 -3 97 -3 0 -35z"/>
<path d="M1025 1844 c-55 -94 -47 -92 -95 -23 -15 21 -16 21 -48 2 -17 -10
-32 -20 -32 -23 0 -3 20 -36 43 -75 39 -63 47 -70 79 -73 34 -3 36 -2 93 95
32 54 65 108 72 119 13 20 11 23 -20 43 -19 12 -36 21 -38 21 -2 0 -26 -39
-54 -86z"/>
<path d="M1290 1850 l0 -40 380 0 380 0 0 40 0 40 -380 0 -380 0 0 -40z"/>
<path d="M1290 1690 l0 -40 235 0 235 0 0 40 0 40 -235 0 -235 0 0 -40z"/>
<path d="M1025 1414 c-55 -94 -47 -92 -95 -23 -15 21 -16 21 -48 2 -17 -10
-32 -20 -32 -23 0 -3 20 -36 43 -75 39 -63 47 -70 79 -73 34 -3 36 -2 93 95
32 54 65 108 72 119 13 20 11 23 -20 43 -19 12 -36 21 -38 21 -2 0 -26 -39
-54 -86z"/>
<path d="M1290 1420 l0 -40 380 0 380 0 0 40 0 40 -380 0 -380 0 0 -40z"/>
<path d="M1290 1260 l0 -40 185 0 185 0 0 40 0 40 -185 0 -185 0 0 -40z"/>
<path d="M880 930 l0 -120 120 0 120 0 0 120 0 120 -120 0 -120 0 0 -120z"/>
<path d="M1290 1010 l0 -40 380 0 380 0 0 40 0 40 -380 0 -380 0 0 -40z"/>
<path d="M1290 850 l0 -40 290 0 290 0 0 40 0 40 -290 0 -290 0 0 -40z"/>
</g>
</svg>
