<?xml version="1.0" encoding="UTF-8"?>
<svg xmlns="http://www.w3.org/2000/svg" xmlns:xlink="http://www.w3.org/1999/xlink" width="80pt" height="80pt" viewBox="0 0 80 80" version="1.1">
<g id="surface1">
<path style=" stroke:none;fill-rule:nonzero;fill:rgb(0%,0%,0%);fill-opacity:1;" d="M 13.898438 0.40625 C 12.355469 0.910156 10.726562 2.757812 10.332031 4.484375 C 10.089844 5.421875 9.96875 9.4375 9.96875 16.113281 L 9.96875 26.332031 L 5.589844 26.332031 C 0.394531 26.332031 0 26.519531 0 29.089844 C 0 31.253906 1.027344 33.136719 2.871094 34.324219 L 4.320312 35.265625 L 11.84375 35.359375 L 19.335938 35.453125 L 19.335938 79.9375 L 20.242188 79.9375 C 21.539062 79.9375 22.960938 79.246094 23.988281 78.085938 C 25.105469 76.863281 25.648438 76.863281 26.765625 78.085938 C 28.882812 80.40625 30.875 80.5 33.082031 78.402344 C 33.835938 77.679688 34.59375 77.117188 34.832031 77.117188 C 35.046875 77.117188 35.800781 77.679688 36.496094 78.371094 C 38.640625 80.40625 40.90625 80.375 42.898438 78.214844 C 44.167969 76.863281 44.652344 76.832031 45.800781 78.085938 C 47.914062 80.40625 49.910156 80.5 52.113281 78.402344 C 52.871094 77.679688 53.625 77.117188 53.808594 77.117188 C 53.988281 77.117188 54.742188 77.679688 55.5 78.371094 C 57.734375 80.40625 59.941406 80.34375 61.933594 78.214844 C 63.203125 76.863281 63.6875 76.832031 64.832031 78.085938 C 65.980469 79.371094 67.101562 79.9375 68.429688 79.9375 L 69.488281 79.9375 L 69.488281 68.964844 L 73.566406 68.964844 C 78.066406 68.964844 79.0625 68.683594 79.699219 67.242188 C 80.484375 65.421875 79.878906 62.507812 78.578125 61.753906 C 78.246094 61.597656 76.074219 61.441406 73.746094 61.441406 L 69.515625 61.441406 L 69.425781 33.449219 C 69.335938 2.289062 69.488281 4.355469 67.21875 2.101562 C 65.074219 -0.0625 65.800781 0 39.003906 0.03125 C 22.417969 0.0625 14.621094 0.15625 13.898438 0.40625 Z M 17.039062 2.945312 C 17.582031 3.167969 18.308594 3.761719 18.671875 4.230469 C 19.335938 5.078125 19.335938 5.203125 19.335938 18.996094 L 19.335938 32.914062 L 11.238281 32.914062 L 11.8125 31.753906 C 12.355469 30.660156 12.386719 29.75 12.386719 18.183594 C 12.386719 4.292969 12.417969 4.136719 14.5 3.070312 C 15.769531 2.382812 15.769531 2.382812 17.039062 2.945312 Z M 64.230469 3.101562 C 64.984375 3.480469 65.738281 4.136719 66.191406 4.890625 L 66.917969 6.113281 L 67.007812 33.761719 L 67.070312 61.441406 L 34.441406 61.441406 L 31.84375 62.695312 C 30.394531 63.386719 28.820312 63.949219 28.367188 63.949219 C 27.554688 63.949219 27.492188 64.042969 27.492188 65.203125 C 27.492188 66.363281 27.554688 66.457031 28.367188 66.457031 C 28.851562 66.457031 30.421875 67.023438 31.875 67.710938 L 34.5 68.964844 L 67.070312 68.964844 L 67.070312 76.550781 L 66.132812 75.738281 C 64.261719 74.105469 62.265625 74.230469 60.242188 76.175781 C 59.515625 76.863281 58.792969 77.429688 58.609375 77.429688 C 58.429688 77.429688 57.703125 76.863281 56.949219 76.144531 C 54.742188 74.042969 52.507812 74.105469 50.484375 76.332031 C 49.941406 76.929688 49.335938 77.429688 49.125 77.429688 C 48.914062 77.429688 48.367188 76.992188 47.855469 76.457031 C 45.710938 74.105469 43.472656 74.011719 41.238281 76.144531 C 40.511719 76.832031 39.757812 77.429688 39.578125 77.429688 C 39.394531 77.429688 38.671875 76.863281 37.945312 76.175781 C 35.738281 74.074219 33.835938 74.074219 31.722656 76.175781 C 31.027344 76.863281 30.300781 77.429688 30.089844 77.429688 C 29.878906 77.429688 29.335938 76.992188 28.820312 76.457031 C 26.738281 74.167969 24.53125 73.980469 22.445312 75.957031 L 21.753906 76.582031 L 21.753906 40.5625 C 21.753906 9.214844 21.691406 4.421875 21.300781 3.636719 C 21.058594 3.167969 20.847656 2.695312 20.847656 2.632812 C 20.847656 2.570312 30.332031 2.507812 41.933594 2.507812 C 61.8125 2.507812 63.050781 2.539062 64.230469 3.101562 Z M 9.96875 29.308594 C 9.96875 29.59375 9.757812 30.21875 9.546875 30.691406 C 8.1875 33.386719 4.199219 33.386719 2.839844 30.691406 C 1.964844 28.902344 2.054688 28.839844 6.191406 28.839844 C 9.394531 28.839844 9.96875 28.902344 9.96875 29.308594 Z M 69.183594 65.203125 L 69.183594 66.457031 L 52.355469 66.457031 C 37.492188 66.457031 35.378906 66.394531 34.230469 65.957031 C 33.503906 65.675781 32.929688 65.328125 32.929688 65.203125 C 32.929688 65.078125 33.445312 64.734375 34.078125 64.484375 C 35.046875 64.042969 37.523438 63.980469 52.207031 63.980469 L 69.183594 63.949219 Z M 77.492188 65.203125 L 77.492188 66.300781 L 74.5625 66.394531 L 71.601562 66.488281 L 71.601562 63.917969 L 74.5625 64.011719 L 77.492188 64.105469 Z M 77.492188 65.203125 "/>
<path style=" stroke:none;fill-rule:nonzero;fill:rgb(0%,0%,0%);fill-opacity:1;" d="M 30.964844 22.132812 C 29.304688 25.078125 29.546875 25.015625 28.097656 22.851562 C 27.644531 22.195312 27.613281 22.195312 26.648438 22.789062 C 26.132812 23.101562 25.679688 23.417969 25.679688 23.511719 C 25.679688 23.605469 26.285156 24.640625 26.980469 25.863281 C 28.15625 27.835938 28.398438 28.054688 29.367188 28.152344 C 30.394531 28.246094 30.453125 28.214844 32.175781 25.171875 C 33.140625 23.480469 34.140625 21.785156 34.351562 21.441406 C 34.742188 20.816406 34.683594 20.722656 33.746094 20.09375 C 33.171875 19.71875 32.660156 19.4375 32.597656 19.4375 C 32.539062 19.4375 31.8125 20.660156 30.964844 22.132812 Z M 30.964844 22.132812 "/>
<path style=" stroke:none;fill-rule:nonzero;fill:rgb(0%,0%,0%);fill-opacity:1;" d="M 38.972656 21.945312 L 38.972656 23.199219 L 61.933594 23.199219 L 61.933594 20.691406 L 38.972656 20.691406 Z M 38.972656 21.945312 "/>
<path style=" stroke:none;fill-rule:nonzero;fill:rgb(0%,0%,0%);fill-opacity:1;" d="M 38.972656 26.960938 L 38.972656 28.214844 L 53.171875 28.214844 L 53.171875 25.707031 L 38.972656 25.707031 Z M 38.972656 26.960938 "/>
<path style=" stroke:none;fill-rule:nonzero;fill:rgb(0%,0%,0%);fill-opacity:1;" d="M 30.964844 35.609375 C 29.304688 38.558594 29.546875 38.496094 28.097656 36.332031 C 27.644531 35.675781 27.613281 35.675781 26.648438 36.269531 C 26.132812 36.582031 25.679688 36.898438 25.679688 36.992188 C 25.679688 37.085938 26.285156 38.117188 26.980469 39.339844 C 28.15625 41.316406 28.398438 41.535156 29.367188 41.628906 C 30.394531 41.722656 30.453125 41.691406 32.175781 38.652344 C 33.140625 36.960938 34.140625 35.265625 34.351562 34.921875 C 34.742188 34.292969 34.683594 34.199219 33.746094 33.574219 C 33.171875 33.199219 32.660156 32.914062 32.597656 32.914062 C 32.539062 32.914062 31.8125 34.136719 30.964844 35.609375 Z M 30.964844 35.609375 "/>
<path style=" stroke:none;fill-rule:nonzero;fill:rgb(0%,0%,0%);fill-opacity:1;" d="M 38.972656 35.421875 L 38.972656 36.675781 L 61.933594 36.675781 L 61.933594 34.167969 L 38.972656 34.167969 Z M 38.972656 35.421875 "/>
<path style=" stroke:none;fill-rule:nonzero;fill:rgb(0%,0%,0%);fill-opacity:1;" d="M 38.972656 40.4375 L 38.972656 41.691406 L 50.152344 41.691406 L 50.152344 39.183594 L 38.972656 39.183594 Z M 38.972656 40.4375 "/>
<path style=" stroke:none;fill-rule:nonzero;fill:rgb(0%,0%,0%);fill-opacity:1;" d="M 26.585938 50.785156 L 26.585938 54.546875 L 33.835938 54.546875 L 33.835938 47.023438 L 26.585938 47.023438 Z M 26.585938 50.785156 "/>
<path style=" stroke:none;fill-rule:nonzero;fill:rgb(0%,0%,0%);fill-opacity:1;" d="M 38.972656 48.277344 L 38.972656 49.53125 L 61.933594 49.53125 L 61.933594 47.023438 L 38.972656 47.023438 Z M 38.972656 48.277344 "/>
<path style=" stroke:none;fill-rule:nonzero;fill:rgb(0%,0%,0%);fill-opacity:1;" d="M 38.972656 53.292969 L 38.972656 54.546875 L 56.496094 54.546875 L 56.496094 52.039062 L 38.972656 52.039062 Z M 38.972656 53.292969 "/>
</g>
</svg>
