<?xml version="1.0" standalone="no"?>
<!DOCTYPE svg PUBLIC "-//W3C//DTD SVG 20010904//EN"
 "http://www.w3.org/TR/2001/REC-SVG-20010904/DTD/svg10.dtd">
<svg version="1.0" xmlns="http://www.w3.org/2000/svg"
 width="283.000000pt" height="206.000000pt" viewBox="0 0 283.000000 206.000000"
 preserveAspectRatio="xMidYMid meet">
<metadata>
Created by potrace 1.16, written by Peter Selinger 2001-2019
</metadata>
<g transform="translate(0.000000,206.000000) scale(0.100000,-0.100000)"
fill="#000000" stroke="none">
<path d="M174 2026 c-34 -34 -34 -34 -34 -130 l0 -96 -70 -140 c-77 -154 -84
-187 -48 -240 37 -53 70 -72 127 -73 l51 -1 0 -513 0 -513 -25 0 -25 0 0 -126
0 -126 34 -34 34 -34 1197 0 1197 0 34 34 34 34 0 126 0 126 -30 0 -30 0 0
513 0 513 48 0 c84 0 148 54 159 132 5 36 -2 54 -63 169 l-69 128 -5 113 c-5
113 -5 114 -38 143 l-32 29 -1206 0 -1206 0 -34 -34z m2424 -58 c7 -7 12 -39
12 -75 l0 -63 -1195 0 -1195 0 0 69 c0 46 4 71 13 74 6 3 539 6 1183 6 897 1
1173 -2 1182 -11z m87 -349 c64 -126 66 -132 50 -155 -9 -14 -26 -29 -38 -33
-30 -11 -76 7 -89 35 -16 35 -79 34 -102 -2 -10 -14 -27 -29 -39 -33 -30 -11
-76 7 -89 35 -17 37 -70 33 -106 -7 -19 -22 -37 -31 -57 -31 -20 0 -38 9 -57
31 -35 39 -92 44 -103 10 -8 -24 -59 -49 -87 -41 -10 2 -29 17 -42 33 -33 38
-87 41 -104 5 -13 -28 -59 -46 -89 -35 -12 4 -29 19 -39 33 -23 36 -86 37
-102 2 -13 -28 -59 -46 -89 -35 -12 4 -29 19 -39 33 -22 35 -84 37 -99 4 -14
-32 -65 -50 -96 -35 -13 7 -28 22 -34 35 -8 18 -18 22 -52 22 -29 0 -43 -4
-43 -13 0 -24 -39 -50 -71 -49 -33 1 -69 26 -69 49 0 9 -13 13 -39 13 -30 0
-42 -5 -55 -26 -10 -14 -27 -29 -39 -33 -30 -11 -76 7 -89 35 -16 35 -79 34
-102 -2 -10 -14 -27 -29 -39 -33 -30 -11 -76 7 -89 35 -16 35 -79 34 -102 -2
-10 -14 -27 -29 -39 -33 -30 -11 -76 7 -89 35 -17 37 -70 33 -106 -7 -19 -21
-37 -31 -56 -31 -27 0 -76 36 -76 57 0 6 30 68 66 138 l65 127 1205 0 1204 0
65 -131z m-2075 -273 c29 0 60 8 81 20 l34 20 34 -20 c21 -12 52 -20 81 -20
29 0 60 8 81 20 l34 20 34 -20 c45 -26 117 -26 162 0 l34 20 34 -20 c45 -26
117 -26 162 0 l34 20 34 -20 c21 -12 52 -20 81 -20 29 0 60 8 81 20 l34 20 34
-20 c46 -27 118 -26 161 1 l33 21 28 -20 c40 -30 129 -29 170 1 l29 22 29 -22
c41 -30 130 -31 170 -1 26 19 30 19 51 5 38 -27 93 -34 144 -19 l46 14 0 -524
0 -524 -460 0 -460 0 0 -30 0 -30 -205 0 -205 0 0 30 0 30 -465 0 -465 0 0
530 0 530 25 -16 c38 -25 129 -23 163 4 l27 20 34 -21 c22 -13 52 -21 81 -21z
m520 -1136 l0 -30 285 0 285 0 0 30 0 30 450 0 450 0 0 -68 c0 -40 -5 -73 -12
-80 -17 -17 -2329 -17 -2346 0 -7 7 -12 40 -12 80 l0 68 450 0 450 0 0 -30z"/>
<path d="M752 1271 c-60 -16 -112 -83 -112 -146 0 -25 -1 -25 -80 -25 l-80 0
0 -345 0 -345 480 0 480 0 0 135 0 135 35 0 35 0 0 115 0 115 -175 0 -175 0 0
95 0 95 -74 0 -74 0 -7 38 c-9 53 -38 98 -76 118 -38 19 -130 27 -177 15z
m148 -97 c10 -11 20 -31 24 -46 l6 -28 -105 0 c-94 0 -105 2 -105 18 0 24 28
61 54 73 32 14 106 4 126 -17z m-260 -189 c0 -34 1 -35 40 -35 39 0 40 1 40
35 l0 35 105 0 105 0 0 -35 c0 -34 1 -35 40 -35 39 0 40 1 40 35 0 33 2 35 35
35 l35 0 0 -265 0 -265 -260 0 c-253 0 -260 1 -260 20 0 19 7 20 105 20 l105
0 0 40 0 40 -105 0 -105 0 0 30 0 30 105 0 105 0 0 40 0 40 -105 0 -105 0 0
25 0 25 105 0 105 0 0 40 0 40 -105 0 -105 0 0 70 0 70 40 0 c39 0 40 -1 40
-35z m790 -190 l0 -35 -135 0 -135 0 0 35 0 35 135 0 135 0 0 -35z m-70 -210
l0 -95 -100 0 -100 0 0 95 0 95 100 0 100 0 0 -95z"/>
<path d="M1690 1020 l0 -40 320 0 320 0 0 40 0 40 -320 0 -320 0 0 -40z"/>
<path d="M1690 890 l0 -40 320 0 320 0 0 40 0 40 -320 0 -320 0 0 -40z"/>
<path d="M1655 740 c-21 -40 -20 -44 18 -62 30 -14 34 -23 51 -94 10 -44 21
-83 24 -88 3 -6 6 -26 6 -45 1 -33 4 -36 30 -36 37 0 56 27 38 55 -12 19 -10
20 50 19 35 0 57 -3 51 -6 -7 -2 -13 -18 -13 -34 0 -22 6 -30 25 -35 15 -4 32
-1 40 6 18 15 20 46 4 56 -7 4 -7 9 -2 13 9 5 76 193 70 196 -1 1 -66 11 -144
23 -86 13 -159 30 -183 42 -21 11 -42 20 -44 20 -3 0 -12 -13 -21 -30z"/>
<path d="M2231 666 c-13 -14 -20 -29 -16 -35 4 -7 -15 -11 -59 -11 l-66 0 0
-40 0 -40 65 0 c49 0 63 -3 59 -13 -2 -7 7 -24 21 -37 l26 -24 57 57 57 57
-55 55 c-30 30 -57 55 -60 55 -4 0 -17 -11 -29 -24z"/>
</g>
</svg>
