<svg height="80" viewBox="0 0 80 80" width="80" xmlns="http://www.w3.org/2000/svg"><path d="m35.002 0c-19.33 0-35.002 15.672-35.002 35s15.672 35 35.002 35 34.998-15.672 34.998-35-15.669-35-34.998-35zm0 66.815c-17.572 0-31.817-14.24-31.817-31.815s14.245-31.815 31.817-31.815c17.571 0 31.816 14.24 31.816 31.815s-14.245 31.815-31.816 31.815zm0-49.312c4.831 0 9.208 1.954 12.372 5.121l2.25-2.246a20.615 20.615 0 0 0 -14.622-6.06c-11.423 0-20.682 9.262-20.682 20.682s9.259 20.682 20.682 20.682c5.71 0 10.881-2.318 14.622-6.06l-2.25-2.246a17.438 17.438 0 0 1 -12.372 5.12c-9.665.001-17.502-7.83-17.502-17.496s7.837-17.497 17.502-17.497z" fill="#323848"/></svg>