<svg height="80" viewBox="0 0 80 80" width="80" xmlns="http://www.w3.org/2000/svg"><g fill="#323848" fill-rule="evenodd"><path d="m45.052 64.055a6.586 6.586 0 0 0 1.518-4.178 6.653 6.653 0 1 0 -13.305 0 6.586 6.586 0 0 0 1.518 4.178 3.984 3.984 0 0 0 -2.849 3.805v10.644a1.33 1.33 0 0 0 2.661 0v-10.644c0-.735.596-1.33 1.33-1.33h7.984c.735 0 1.33.595 1.33 1.33v10.644a1.33 1.33 0 0 0 2.662 0v-10.644a3.984 3.984 0 0 0 -2.849-3.805zm-5.135-8.17a3.991 3.991 0 1 1 0 7.983 3.991 3.991 0 0 1 0-7.983zm34.575-8.909a9.314 9.314 0 0 0 5.342-8.388v-2.662a6.66 6.66 0 0 0 -6.652-6.652h-19.959a2.66 2.66 0 0 0 -2.661 2.66v6.654a9.314 9.314 0 0 0 5.342 8.388 9.28 9.28 0 0 0 2.788 6.248h-1.477a6.66 6.66 0 0 0 -6.653 6.653v18.627a1.33 1.33 0 0 0 2.661 0v-10.644h2.661v10.644a1.33 1.33 0 0 0 2.661 0v-11.974a1.33 1.33 0 0 0 -1.33-1.33h-3.992v-5.322a3.991 3.991 0 0 1 3.992-3.992h2.66a5.322 5.322 0 1 0 10.645 0h2.662a3.991 3.991 0 0 1 3.991 3.992v5.322h-3.991a1.33 1.33 0 0 0 -1.331 1.33v11.975a1.33 1.33 0 0 0 2.661 0v-10.645h2.661v10.644a1.33 1.33 0 0 0 2.661 0v-18.627a6.66 6.66 0 0 0 -6.652-6.653h-1.48a9.279 9.279 0 0 0 2.79-6.248zm-15.947-.405v-6.653h6.653a1.33 1.33 0 0 0 0-2.661h-7.983a1.33 1.33 0 0 0 -1.33 1.33v5.314a6.653 6.653 0 0 1 -2.662-5.313v-6.653h19.959a3.991 3.991 0 0 1 3.991 3.991v2.662a6.653 6.653 0 0 1 -2.66 5.313v-5.313a1.33 1.33 0 0 0 -1.331-1.331h-2.662a1.33 1.33 0 0 0 0 2.661h1.331v6.653a6.653 6.653 0 0 1 -13.306 0zm6.653 11.975a2.661 2.661 0 0 1 -2.661-2.661h5.322a2.661 2.661 0 0 1 -2.66 2.661zm-42.578-5.322h-1.478a9.276 9.276 0 0 0 2.809-6.653v-7.983a1.33 1.33 0 0 0 -1.33-1.331h-2.662a1.33 1.33 0 0 0 0 2.661h1.33v6.653a6.653 6.653 0 0 1 -13.305 0v-6.653h6.653a1.33 1.33 0 0 0 0-2.661h-7.984a1.33 1.33 0 0 0 -1.33 1.33v7.984a9.28 9.28 0 0 0 2.807 6.653h-1.477a6.66 6.66 0 0 0 -6.652 6.653v18.627a1.33 1.33 0 0 0 2.66 0v-10.644h2.662v10.644a1.33 1.33 0 0 0 2.661 0v-11.974a1.33 1.33 0 0 0 -1.33-1.33h-3.993v-5.322a3.991 3.991 0 0 1 3.991-3.992h2.662v2.661c-.001.353.14.692.39.942l3.601 3.602v6.1a1.33 1.33 0 0 0 2.661 0v-6.1l3.602-3.602c.25-.25.39-.59.39-.942v-2.661h2.661a3.991 3.991 0 0 1 3.992 3.992v5.322h-3.991a1.33 1.33 0 0 0 -1.33 1.33v11.975a1.33 1.33 0 0 0 2.66 0v-10.645h2.662v10.644a1.33 1.33 0 0 0 2.661 0v-18.627a6.66 6.66 0 0 0 -6.653-6.653zm-5.322 4.771-2.661 2.661-2.661-2.66v-2.111h5.322z" fill-rule="nonzero"/><path d="m14.637 26.613c-8.08.009-14.627 6.556-14.637 14.636v9.314a1.33 1.33 0 0 0 2.66 0v-9.314c0-6.614 5.362-11.975 11.976-11.975s11.975 5.36 11.975 11.975v9.314a1.33 1.33 0 0 0 2.661 0v-9.314c-.01-8.08-6.557-14.627-14.636-14.636z"/><g fill-rule="nonzero"><path d="m6.757 23.514 1.227-.57v1.007a1.33 1.33 0 0 0 2.661 0v-2.243l27.572-12.801a4.032 4.032 0 0 1 3.4 0l27.573 12.801v2.243a1.33 1.33 0 0 0 2.661 0v-1.007l1.227.57a3.992 3.992 0 0 0 3.362-7.243l-33.702-15.647a6.691 6.691 0 0 0 -5.641 0l-33.702 15.646a3.992 3.992 0 1 0 3.362 7.243zm-2.927-4.079c.12-.332.369-.601.69-.75l33.696-15.646a4.032 4.032 0 0 1 3.4 0l33.704 15.646a1.33 1.33 0 1 1 -1.122 2.415l-31.46-14.608a6.691 6.691 0 0 0 -5.641 0l-31.46 14.608a1.33 1.33 0 0 1 -1.811-1.665z"/><path d="m46.57 17.299h-13.305a1.33 1.33 0 0 0 -1.33 1.33v10.645a1.33 1.33 0 0 0 2.66 0v-3.992h3.992v3.992a1.33 1.33 0 0 0 2.661 0v-3.992h3.992v3.992a1.33 1.33 0 0 0 2.66 0v-10.645a1.33 1.33 0 0 0 -1.33-1.33zm-11.975 5.321v-2.66h3.992v2.66zm6.653 0v-2.66h3.992v2.66z"/></g></g></svg>