<svg height="80" viewBox="0 0 81 80" width="81" xmlns="http://www.w3.org/2000/svg"><g fill="#323848" fill-rule="evenodd"><path d="m78.982 21.292a3.84 3.84 0 0 1 -3.836-3.836 1.174 1.174 0 1 0 -2.348 0 3.84 3.84 0 0 1 -3.836 3.836 1.174 1.174 0 1 0 0 2.348 3.84 3.84 0 0 1 3.836 3.836 1.174 1.174 0 1 0 2.348 0 3.84 3.84 0 0 1 3.836-3.836 1.174 1.174 0 1 0 0-2.348zm-5.01 2.562a6.246 6.246 0 0 0 -1.388-1.388 6.243 6.243 0 0 0 1.388-1.388 6.246 6.246 0 0 0 1.388 1.388 6.246 6.246 0 0 0 -1.388 1.388zm-62.622-2.562a3.84 3.84 0 0 1 -3.836-3.836 1.174 1.174 0 1 0 -2.348 0 3.84 3.84 0 0 1 -3.836 3.836 1.174 1.174 0 1 0 0 2.348 3.84 3.84 0 0 1 3.836 3.836 1.174 1.174 0 1 0 2.348 0 3.84 3.84 0 0 1 3.836-3.836 1.174 1.174 0 1 0 0-2.348zm-5.01 2.562a6.243 6.243 0 0 0 -1.388-1.388 6.24 6.24 0 0 0 1.388-1.388 6.243 6.243 0 0 0 1.388 1.388 6.25 6.25 0 0 0 -1.388 1.388zm40.078-17.592a5.094 5.094 0 0 1 -5.088-5.088 1.174 1.174 0 1 0 -2.348 0 5.094 5.094 0 0 1 -5.088 5.088 1.174 1.174 0 1 0 0 2.349 5.094 5.094 0 0 1 5.088 5.088 1.174 1.174 0 1 0 2.348 0 5.094 5.094 0 0 1 5.09-5.089 1.174 1.174 0 1 0 0-2.349zm-6.262 3.43a7.501 7.501 0 0 0 -2.255-2.256 7.501 7.501 0 0 0 2.255-2.255 7.503 7.503 0 0 0 2.256 2.255 7.503 7.503 0 0 0 -2.256 2.256zm24.447 29.918-4.568-12.942a2.43 2.43 0 0 0 -2.288-1.62h-35.494a2.43 2.43 0 0 0 -2.289 1.62l-4.567 12.941c-.265.752.311 1.565 1.107 1.565h46.991a1.174 1.174 0 0 0 1.108-1.565zm-46.44-.784 4.016-11.377a.08.08 0 0 1 .074-.052h35.494a.08.08 0 0 1 .074.053l4.015 11.376h-43.672zm44.381 16.282c-4.17 0-7.437 2.166-7.437 4.931 0 2.766 3.267 4.932 7.437 4.932s7.436-2.166 7.436-4.932c0-2.765-3.266-4.931-7.436-4.931zm0 7.514c-2.912 0-5.088-1.363-5.088-2.583s2.175-2.583 5.088-2.583c2.912 0 5.088 1.364 5.088 2.583 0 1.22-2.176 2.583-5.088 2.583zm-45.088-7.514c-4.17 0-7.437 2.166-7.437 4.931 0 2.766 3.267 4.932 7.437 4.932s7.436-2.166 7.436-4.932c0-2.765-3.266-4.931-7.436-4.931zm0 7.514c-2.912 0-5.088-1.363-5.088-2.583s2.175-2.583 5.088-2.583c2.912 0 5.088 1.364 5.088 2.583 0 1.22-2.176 2.583-5.088 2.583z" fill-rule="nonzero"/><path d="m77.573 37.573h-6.262c-.539 0-1.009.367-1.14.89l-.824 3.299-5.769-16.345a6.193 6.193 0 0 0 -5.831-4.125h-35.494a6.193 6.193 0 0 0 -5.832 4.125l-5.768 16.345-.825-3.3c-.131-.522-.6-.889-1.14-.889h-6.261c-.648 0-1.174.526-1.174 1.175v5.01c0 .648.526 1.174 1.174 1.174h6.486l-4.003 5.604a6.15 6.15 0 0 0 -1.152 3.594v14.676c0 2.034.987 3.841 2.507 4.969l-.002.041v3.757a2.43 2.43 0 0 0 2.425 2.427h7.515a2.43 2.43 0 0 0 2.427-2.427v-2.583h42.74v2.583a2.43 2.43 0 0 0 2.425 2.427h7.515a2.43 2.43 0 0 0 2.426-2.427v-3.757l-.002-.041a6.178 6.178 0 0 0 2.507-4.969v-14.676a6.15 6.15 0 0 0 -1.152-3.594l-4.003-5.604h6.486c.648 0 1.174-.526 1.174-1.175v-5.01c0-.648-.525-1.174-1.174-1.174zm-73.973 5.01v-2.661h4.172l.665 2.661zm12.682 34.99a.078.078 0 0 1 -.079.079h-7.513a.078.078 0 0 1 -.079-.079v-2.583h7.67v2.583zm55.107 0a.078.078 0 0 1 -.078.079h-7.515a.078.078 0 0 1 -.078-.079v-2.583h7.671zm-1.33-4.931h-60.119a3.842 3.842 0 0 1 -3.65-2.662h67.42a3.842 3.842 0 0 1 -3.652 2.662zm-19.963-12.682v2.661h-20.194v-2.661h20.195zm-20.01-2.349a3.842 3.842 0 0 1 3.65-2.66h12.525a3.842 3.842 0 0 1 3.651 2.66zm20.01 7.359v2.661h-20.194v-2.661h20.195zm23.084-13.07c.467.654.714 1.425.714 2.229v13.502h-21.448v-8.845a6.191 6.191 0 0 0 -6.184-6.184h-12.525a6.191 6.191 0 0 0 -6.183 6.184v8.845h-21.449v-13.501c0-.804.247-1.575.715-2.23l4.978-6.968h43.23a1.174 1.174 0 1 0 0-2.349h-42.174l5.782-16.383a3.842 3.842 0 0 1 3.617-2.56h35.494a3.842 3.842 0 0 1 3.617 2.56l5.782 16.384h-7.106a1.174 1.174 0 1 0 0 2.349h8.163zm3.219-9.318h-4.837l.666-2.661h4.17v2.661z" fill-rule="nonzero"/><path d="m21.213 51.35h-7.515a1.174 1.174 0 1 0 0 2.349h7.515a1.174 1.174 0 1 0 0-2.349zm45.088 0h-7.515a1.174 1.174 0 1 0 0 2.349h7.515a1.174 1.174 0 1 0 0-2.349z"/></g></svg>