<svg height="80" viewBox="0 0 63 80" width="63" xmlns="http://www.w3.org/2000/svg"><g fill="#323848" fill-rule="evenodd"><path d="m35.839 64.343-9.286-3.714v-3.454c5.183-2.343 8.895-7.386 9.33-13.325h.21a3.854 3.854 0 0 0 3.848-3.85 3.856 3.856 0 0 0 -2.678-3.667v-5.705c0-3.161-.996-6.168-2.88-8.695a14.486 14.486 0 0 0 -7.265-5.184l-5.995-15.989a1.172 1.172 0 0 0 -2.195 0l-5.996 15.99a14.687 14.687 0 0 0 -7.264 5.18 14.442 14.442 0 0 0 -2.881 8.698v5.705a3.856 3.856 0 0 0 -2.678 3.667 3.854 3.854 0 0 0 3.85 3.85h.21c.434 5.94 4.146 10.982 9.33 13.325v3.454l-9.287 3.714a6.497 6.497 0 0 0 -4.102 6.061v8.424a1.172 1.172 0 0 0 2.344 0v-8.424a4.164 4.164 0 0 1 2.63-3.885l8.427-3.37c.202 3.419 3.046 6.14 6.516 6.14 3.469 0 6.314-2.721 6.515-6.14l8.427 3.37a4.164 4.164 0 0 1 2.63 3.885v8.424a1.172 1.172 0 0 0 2.344 0v-8.424a6.497 6.497 0 0 0 -4.103-6.06zm-9.471-42.92h-5.45l4.472-2.61zm-6.342-16.915 1.234 3.292-3.16 1.842 1.926-5.133zm-3.227 8.604 5.296-3.086.812 2.166-7.376 4.303zm-2.57 6.856 9.513-5.55.813 2.168-8.29 4.835h-2.582l.545-1.453zm9.98 42.792a4.189 4.189 0 0 1 -4.184 4.184 4.189 4.189 0 0 1 -4.183-4.184v-4.74c1.333.364 2.736.559 4.183.559 1.448 0 2.85-.195 4.184-.56v4.743zm-4.183-6.527c-7.475 0-13.556-6.081-13.556-13.556 0-.647-.525-1.172-1.172-1.172h-1.34c-.83 0-1.505-.676-1.505-1.506s.675-1.506 1.506-1.506h2.086a3.845 3.845 0 0 0 3.652-2.632l.468-1.402a60.346 60.346 0 0 0 7.026-.666c5.945-.914 10.721-2.553 14.196-4.87a1.172 1.172 0 1 0 -1.3-1.95c-7.639 5.093-20.642 5.16-20.773 5.16-.504 0-.952.322-1.111.8l-.729 2.186a1.504 1.504 0 0 1 -1.429 1.03h-.914v-5.522c0-4.684 2.618-8.848 6.685-10.9l-.921 2.455a1.172 1.172 0 0 0 1.097 1.583h16.068a1.172 1.172 0 0 0 1.098-1.583l-.921-2.456a12.162 12.162 0 0 1 6.685 10.9v5.523h-.915c-.65 0-1.223-.414-1.428-1.03l-.73-2.185a1.172 1.172 0 1 0 -2.223.74l.73 2.187a3.844 3.844 0 0 0 3.651 2.632h2.087c.83 0 1.506.675 1.506 1.506 0 .83-.676 1.506-1.506 1.506h-1.34c-.646 0-1.171.524-1.171 1.172 0 7.475-6.081 13.556-13.556 13.556z" fill-rule="nonzero"/><path d="m13.331 38.828c-.647 0-1.172.525-1.172 1.172v1.339a1.172 1.172 0 0 0 2.344 0v-1.339c0-.647-.525-1.172-1.172-1.172zm13.389 0c-.647 0-1.172.525-1.172 1.172v1.339a1.172 1.172 0 0 0 2.344 0v-1.339c0-.647-.525-1.172-1.172-1.172zm-1.772 8.462c-.411-.5-1.15-.573-1.65-.162-.829.682-2.022 1.073-3.272 1.073-1.251 0-2.444-.391-3.273-1.073a1.172 1.172 0 0 0 -1.488 1.81c1.26 1.036 2.95 1.606 4.76 1.606 1.811 0 3.502-.57 4.761-1.605.5-.411.573-1.15.162-1.65zm-14.658 26.871-2.678-4.016a1.172 1.172 0 1 0 -1.95 1.3l2.48 3.721v3.662a1.172 1.172 0 0 0 2.344 0v-4.017a1.17 1.17 0 0 0 -.197-.65zm23.775-4.341a1.172 1.172 0 0 0 -1.625.325l-2.678 4.016a1.172 1.172 0 0 0 -.197.65v4.017a1.172 1.172 0 0 0 2.344 0v-3.662l2.48-3.721a1.172 1.172 0 0 0 -.324-1.625z"/><path d="m49.481 0c-7.29 0-13.221 5.931-13.221 13.222 0 5.43 1.312 10.635 3.693 14.656 1.876 3.166 4.229 5.273 6.803 6.145l-1.088 4.354a1.172 1.172 0 0 0 1.137 1.456h1.506v21.757h-1.506a3.854 3.854 0 0 0 -3.85 3.85v5.355a3.856 3.856 0 0 0 2.678 3.667v4.366a1.172 1.172 0 0 0 2.343 0v-4.184h1.506c.534 0 1.044-.11 1.506-.307v4.491a1.172 1.172 0 0 0 2.344 0v-16.067c0-.647-.525-1.172-1.172-1.172h-1.506v-21.756h1.506a1.172 1.172 0 0 0 1.137-1.456l-1.088-4.354c2.574-.872 4.927-2.98 6.802-6.145 2.382-4.021 3.693-9.226 3.693-14.656-.001-7.29-5.932-13.222-13.223-13.222zm1.506 63.933v6.862c0 .83-.675 1.506-1.506 1.506h-2.677c-.83 0-1.506-.676-1.506-1.506v-5.356c0-.83.675-1.506 1.506-1.506zm-2.682-26.443.752-3.012h.848l.753 3.012zm8.689-10.806c-2.082 3.515-4.75 5.45-7.513 5.45s-5.43-1.935-7.512-5.45c-2.139-3.611-3.366-8.518-3.366-13.461 0-5.998 4.88-10.878 10.878-10.878 5.999 0 10.879 4.88 10.879 10.878 0 4.943-1.227 9.85-3.366 13.461z" fill-rule="nonzero"/><path d="m57.19 11.648c-.744-3.646-3.986-6.292-7.709-6.292a1.172 1.172 0 0 0 0 2.343 5.54 5.54 0 0 1 5.412 4.417 1.172 1.172 0 0 0 2.297-.468z"/></g></svg>