<svg height="80" viewBox="0 0 73 80" width="73" xmlns="http://www.w3.org/2000/svg"><g fill="#323848" fill-rule="evenodd"><path d="m9.965 72.367c-.69 0-1.248-.557-1.248-1.247 0-6.193 5.038-11.23 11.23-11.23a1.246 1.246 0 1 1 0 2.494c-4.816 0-8.735 3.919-8.735 8.736 0 .69-.557 1.247-1.247 1.247zm52.395 0c-.69 0-1.248-.557-1.248-1.247 0-4.815-3.918-8.733-8.733-8.733a1.246 1.246 0 1 1 0-2.495c6.193 0 11.228 5.036 11.228 11.228 0 .69-.557 1.247-1.247 1.247z"/><path d="m27.43 62.384h-7.482a1.246 1.246 0 1 1 0-2.495h7.481a1.246 1.246 0 1 1 0 2.495zm-17.464 17.464a1.247 1.247 0 0 1 -1.248-1.248v-7.48a1.248 1.248 0 0 1 2.494 0l.001 7.48c0 .69-.557 1.248-1.247 1.248zm52.394 0c-.69 0-1.248-.558-1.248-1.248v-7.48a1.247 1.247 0 1 1 2.495 0v7.48c0 .69-.557 1.248-1.247 1.248z"/><path d="m27.43 62.384c-.69 0-1.248-.557-1.248-1.247v-5.9a1.247 1.247 0 1 1 2.495 0v5.9c0 .69-.557 1.247-1.248 1.247zm17.465.003c-.69 0-1.247-.558-1.247-1.248v-5.902a1.247 1.247 0 1 1 2.495 0v5.902c0 .69-.558 1.248-1.248 1.248z"/><path d="m36.162 58.643c-10.318 0-18.713-8.395-18.713-18.715a1.248 1.248 0 0 1 2.495 0c0 8.944 7.276 16.22 16.218 16.22 8.943 0 16.219-7.276 16.219-16.22a1.248 1.248 0 0 1 2.495 0c0 10.319-8.394 18.715-18.714 18.715zm16.218 3.744h-7.485a1.246 1.246 0 1 1 0-2.495h7.484a1.246 1.246 0 1 1 0 2.495zm-16.194 8.73c-.32 0-.637-.122-.88-.364l-8.758-8.733a1.247 1.247 0 1 1 1.762-1.767l8.757 8.733a1.246 1.246 0 0 1 -.881 2.131z"/><path d="m36.179 71.117a1.246 1.246 0 0 1 -.884-2.13l8.717-8.73a1.249 1.249 0 0 1 1.767 1.764l-8.717 8.73a1.245 1.245 0 0 1 -.883.366zm34.934 8.731c-.69 0-1.248-.558-1.248-1.248v-77.352a1.248 1.248 0 0 1 2.496 0v77.352c0 .69-.558 1.248-1.248 1.248zm-17.466 0c-.69 0-1.248-.558-1.248-1.248v-77.352a1.248 1.248 0 0 1 2.496 0v77.352c0 .69-.558 1.248-1.248 1.248z"/><path d="m36.181 79.848c-.69 0-1.247-.558-1.247-1.248v-77.352a1.248 1.248 0 0 1 2.495 0v77.352c0 .69-.558 1.248-1.248 1.248zm-17.466 0c-.69 0-1.247-.558-1.247-1.248v-77.352a1.248 1.248 0 0 1 2.495 0v77.352c0 .69-.558 1.248-1.248 1.248zm-17.465 0c-.69 0-1.248-.558-1.248-1.248v-77.352a1.248 1.248 0 0 1 2.495 0v77.352c0 .69-.557 1.248-1.248 1.248zm52.38-53.625c-.689 0-1.247-.56-1.247-1.248a6.245 6.245 0 0 0 -6.238-6.238 1.248 1.248 0 0 1 0-2.495c4.815 0 8.733 3.918 8.733 8.733 0 .688-.557 1.248-1.247 1.248z"/><path d="m46.145 18.737c-.69 0-1.247-.559-1.247-1.247v-4.99a1.247 1.247 0 1 1 2.495 0v4.99c0 .688-.558 1.247-1.248 1.247z"/><path d="m46.145 13.747h-12.478a1.248 1.248 0 0 1 0-2.495h12.478a1.247 1.247 0 1 1 0 2.495z"/><path d="m18.694 28.718c-.69 0-1.248-.56-1.248-1.248 0-8.942 7.277-16.218 16.221-16.218a1.247 1.247 0 1 1 0 2.495c-7.567 0-13.725 6.157-13.725 13.723 0 .689-.558 1.248-1.248 1.248zm34.936 7.486c-.319 0-.638-.122-.88-.365l-3.744-3.743a1.246 1.246 0 0 1 0-1.764 1.245 1.245 0 0 1 1.764 0l3.743 3.743a1.246 1.246 0 0 1 -.882 2.13z"/><path d="m36.163 34.957c-6.911 0-13.852-2.464-14.145-2.57a1.248 1.248 0 0 1 .842-2.348c.067.025 6.835 2.421 13.302 2.421s13.236-2.397 13.303-2.421a1.249 1.249 0 0 1 .842 2.349c-.29.105-7.234 2.569-14.144 2.569z"/><path d="m18.694 36.204a1.249 1.249 0 0 1 -.882-2.13l3.745-3.743a1.248 1.248 0 0 1 1.764 1.765l-3.745 3.743a1.244 1.244 0 0 1 -.882.365z"/></g></svg>