<svg height="80" viewBox="0 0 84 80" width="84" xmlns="http://www.w3.org/2000/svg"><path d="m82.72.744a2.762 2.762 0 0 0 -2.799-.44l-70.683 28.528a1.396 1.396 0 0 0 1.046 2.589l67.524-27.245-33.495 39.505a1.396 1.396 0 1 0 2.13 1.805l34.002-40.106-4.545 22.81-4.577 30.588c-.063.428-.32.803-.698 1.015a1.32 1.32 0 0 1 -1.177.054l-19.032-7.483-9.133-3.824a1.396 1.396 0 0 0 -1.827.747 1.34 1.34 0 0 0 -.059.294h-.033l-4.535 17.51-6.506-22.728 33.914-25.261a1.396 1.396 0 1 0 -1.666-2.233l-34.089 25.381-24.571-9.948a1.396 1.396 0 0 0 -1.047 2.588l24.703 9.996 6.587 22.997a2.768 2.768 0 0 0 2.669 2h.032a2.742 2.742 0 0 0 1.814-.73c.049-.03.095-.062.14-.098l13.49-13.794 18.087 7.172a4.067 4.067 0 0 0 3.588-.2 4.175 4.175 0 0 0 2.103-3.03l4.566-30.532 5.024-25.206a2.806 2.806 0 0 0 -.948-2.72zm-43.979 62.352 2.946-11.357 4.614 1.938 1.189.471-8.75 8.948z" fill="#323848"/></svg>