<?xml version="1.0" encoding="UTF-8"?>
<svg xmlns="http://www.w3.org/2000/svg" xmlns:xlink="http://www.w3.org/1999/xlink" width="80pt" height="80pt" viewBox="0 0 80 80" version="1.1">
<g id="surface1">
<path style=" stroke:none;fill-rule:nonzero;fill:rgb(13.72549%,12.54902%,12.54902%);fill-opacity:1;" d="M 80.15625 4.753906 L 40.964844 4.753906 L 40.964844 1.261719 C 40.964844 0.855469 40.597656 0.507812 40.164062 0.507812 C 39.726562 0.507812 39.363281 0.855469 39.363281 1.261719 L 39.363281 4.753906 L 0.167969 4.753906 L 0.167969 14.476562 L 2.042969 14.476562 L 1.996094 60.34375 L 26.503906 60.34375 L 22.523438 80.304688 L 26.480469 80.304688 L 32.796875 60.34375 L 37.121094 60.34375 L 38.195312 73.601562 L 42.0625 73.601562 L 43.136719 60.34375 L 47.484375 60.34375 L 53.800781 80.304688 L 57.757812 80.304688 L 53.777344 60.34375 L 78.28125 60.34375 L 78.28125 14.476562 L 80.15625 14.476562 Z M 25.289062 78.796875 L 24.464844 78.796875 L 28.148438 60.34375 L 31.125 60.34375 Z M 40.597656 72.113281 L 39.683594 72.113281 L 38.722656 60.367188 L 41.535156 60.367188 Z M 55.835938 78.796875 L 55.011719 78.796875 L 49.175781 60.34375 L 52.152344 60.34375 Z M 75.078125 57.328125 L 5.199219 57.328125 L 5.246094 14.476562 L 75.078125 14.476562 Z M 3.371094 7.773438 L 76.953125 7.773438 L 76.953125 11.457031 L 3.371094 11.457031 Z M 3.371094 7.773438 "/>
<path style=" stroke:none;fill-rule:nonzero;fill:rgb(13.72549%,12.54902%,12.54902%);fill-opacity:1;" d="M 58.75 25.765625 L 60.71875 25.765625 C 61.015625 25.765625 61.265625 25.515625 61.265625 25.21875 C 61.265625 24.921875 61.015625 24.671875 60.71875 24.671875 L 58.75 24.671875 C 58.453125 24.671875 58.203125 24.921875 58.203125 25.21875 C 58.203125 25.515625 58.453125 25.765625 58.75 25.765625 Z M 58.75 25.765625 "/>
<path style=" stroke:none;fill-rule:nonzero;fill:rgb(13.72549%,12.54902%,12.54902%);fill-opacity:1;" d="M 42.046875 25.765625 L 55.953125 25.765625 C 56.25 25.765625 56.5 25.515625 56.5 25.21875 C 56.5 24.921875 56.25 24.671875 55.953125 24.671875 L 42.046875 24.671875 C 41.75 24.671875 41.5 24.921875 41.5 25.21875 C 41.5 25.515625 41.75 25.765625 42.046875 25.765625 Z M 42.046875 25.765625 "/>
<path style=" stroke:none;fill-rule:nonzero;fill:rgb(13.72549%,12.54902%,12.54902%);fill-opacity:1;" d="M 42.046875 27.6875 L 60.71875 27.6875 C 61.015625 27.6875 61.265625 27.4375 61.265625 27.140625 C 61.265625 26.84375 61.015625 26.59375 60.71875 26.59375 L 42.046875 26.59375 C 41.75 26.59375 41.5 26.84375 41.5 27.140625 C 41.5 27.4375 41.75 27.6875 42.046875 27.6875 Z M 42.046875 27.6875 "/>
<path style=" stroke:none;fill-rule:nonzero;fill:rgb(13.72549%,12.54902%,12.54902%);fill-opacity:1;" d="M 60.71875 28.515625 L 49.875 28.515625 C 49.578125 28.515625 49.328125 28.765625 49.328125 29.0625 C 49.328125 29.359375 49.578125 29.609375 49.875 29.609375 L 60.71875 29.609375 C 61.015625 29.609375 61.265625 29.359375 61.265625 29.0625 C 61.265625 28.765625 61.015625 28.515625 60.71875 28.515625 Z M 60.71875 28.515625 "/>
<path style=" stroke:none;fill-rule:nonzero;fill:rgb(13.72549%,12.54902%,12.54902%);fill-opacity:1;" d="M 42.046875 29.609375 L 47.734375 29.609375 C 48.03125 29.609375 48.28125 29.359375 48.28125 29.0625 C 48.28125 28.765625 48.03125 28.515625 47.734375 28.515625 L 42.046875 28.515625 C 41.75 28.515625 41.5 28.765625 41.5 29.0625 C 41.5 29.359375 41.75 29.609375 42.046875 29.609375 Z M 42.046875 29.609375 "/>
<path style=" stroke:none;fill-rule:nonzero;fill:rgb(13.72549%,12.54902%,12.54902%);fill-opacity:1;" d="M 42.046875 31.53125 L 60.71875 31.53125 C 61.015625 31.53125 61.265625 31.28125 61.265625 30.984375 C 61.265625 30.6875 61.015625 30.4375 60.71875 30.4375 L 42.046875 30.4375 C 41.75 30.4375 41.5 30.6875 41.5 30.984375 C 41.5 31.28125 41.75 31.53125 42.046875 31.53125 Z M 42.046875 31.53125 "/>
<path style=" stroke:none;fill-rule:nonzero;fill:rgb(13.72549%,12.54902%,12.54902%);fill-opacity:1;" d="M 60.71875 32.359375 L 58.4375 32.359375 C 58.140625 32.359375 57.890625 32.609375 57.890625 32.90625 C 57.890625 33.203125 58.140625 33.453125 58.4375 33.453125 L 60.71875 33.453125 C 61.015625 33.453125 61.265625 33.203125 61.265625 32.90625 C 61.265625 32.609375 61.015625 32.359375 60.71875 32.359375 Z M 60.71875 32.359375 "/>
<path style=" stroke:none;fill-rule:nonzero;fill:rgb(13.72549%,12.54902%,12.54902%);fill-opacity:1;" d="M 42.046875 33.453125 L 55.703125 33.453125 C 56 33.453125 56.25 33.203125 56.25 32.90625 C 56.25 32.609375 56 32.359375 55.703125 32.359375 L 42.046875 32.359375 C 41.75 32.359375 41.5 32.609375 41.5 32.90625 C 41.5 33.203125 41.75 33.453125 42.046875 33.453125 Z M 42.046875 33.453125 "/>
<path style=" stroke:none;fill-rule:nonzero;fill:rgb(13.72549%,12.54902%,12.54902%);fill-opacity:1;" d="M 42.046875 35.359375 L 60.71875 35.359375 C 61.015625 35.359375 61.265625 35.109375 61.265625 34.8125 C 61.265625 34.515625 61.015625 34.265625 60.71875 34.265625 L 42.046875 34.265625 C 41.75 34.265625 41.5 34.515625 41.5 34.8125 C 41.5 35.109375 41.75 35.359375 42.046875 35.359375 Z M 42.046875 35.359375 "/>
<path style=" stroke:none;fill-rule:nonzero;fill:rgb(13.72549%,12.54902%,12.54902%);fill-opacity:1;" d="M 42.046875 37.28125 L 57.90625 37.28125 C 58.203125 37.28125 58.453125 37.03125 58.453125 36.734375 C 58.453125 36.4375 58.203125 36.1875 57.90625 36.1875 L 42.046875 36.1875 C 41.75 36.1875 41.5 36.4375 41.5 36.734375 C 41.5 37.03125 41.75 37.28125 42.046875 37.28125 Z M 42.046875 37.28125 "/>
<path style=" stroke:none;fill-rule:nonzero;fill:rgb(13.72549%,12.54902%,12.54902%);fill-opacity:1;" d="M 61.265625 39.640625 L 41.5 39.640625 L 41.5 48.15625 L 61.265625 48.15625 Z M 60.171875 47.0625 L 42.59375 47.0625 L 42.59375 40.734375 L 60.171875 40.734375 Z M 60.171875 47.0625 "/>
<path style=" stroke:none;fill-rule:nonzero;fill:rgb(13.72549%,12.54902%,12.54902%);fill-opacity:1;" d="M 27.984375 45.34375 C 32.65625 45.34375 36.453125 41.546875 36.453125 36.875 L 36.453125 36.328125 L 28.59375 36.328125 L 29.453125 28.515625 L 28.90625 28.4375 C 28.59375 28.40625 28.28125 28.390625 27.984375 28.390625 C 23.3125 28.390625 19.515625 32.1875 19.515625 36.859375 C 19.5 41.53125 23.3125 45.34375 27.984375 45.34375 Z M 27.984375 29.484375 C 28.078125 29.484375 28.15625 29.484375 28.25 29.484375 L 27.375 37.40625 L 35.34375 37.40625 C 35.0625 41.21875 31.875 44.234375 27.984375 44.234375 C 23.921875 44.234375 20.609375 40.921875 20.609375 36.859375 C 20.59375 32.796875 23.90625 29.484375 27.984375 29.484375 Z M 27.984375 29.484375 "/>
<path style=" stroke:none;fill-rule:nonzero;fill:rgb(13.72549%,12.54902%,12.54902%);fill-opacity:1;" d="M 38.171875 34.078125 L 38.0625 33.546875 C 37.75 32.0625 37.03125 30.703125 36.015625 29.59375 C 34.984375 28.484375 33.6875 27.671875 32.234375 27.234375 L 31.71875 27.078125 L 29 36.078125 Z M 32.421875 28.4375 C 33.46875 28.84375 34.421875 29.484375 35.1875 30.328125 C 35.953125 31.15625 36.515625 32.15625 36.84375 33.25 L 30.5625 34.609375 Z M 32.421875 28.4375 "/>
</g>
</svg>
