<svg height="80" viewBox="0 0 70 80" width="70" xmlns="http://www.w3.org/2000/svg"><g fill="#323848" fill-rule="evenodd"><g fill-rule="nonzero"><path d="m15.138 23.288h39.59c.642 0 1.164-.522 1.164-1.164v-11.644c0-6.366-3.657-10.48-9.316-10.48h-22.123c-5.975 0-10.48 4.505-10.48 10.48v11.644c0 .642.522 1.164 1.165 1.164zm1.164-12.808c0-4.723 3.428-8.151 8.15-8.151h22.124c5.152 0 6.987 4.21 6.987 8.15v10.48h-37.26v-10.479z"/><path d="m50.07 11.644h-9.316c-.04 0-.075.02-.115.023-.532-2.665-2.888-4.68-5.707-4.68s-5.174 2.015-5.706 4.68c-.04-.003-.075-.023-.116-.023h-9.315a1.165 1.165 0 0 0 0 2.329h9.315c.041 0 .076-.02.116-.023.532 2.665 2.887 4.68 5.706 4.68 2.82 0 5.175-2.015 5.707-4.68.04.003.075.023.115.023h9.316a1.165 1.165 0 0 0 0-2.329zm-15.137 4.658a3.497 3.497 0 0 1 -3.494-3.494 3.497 3.497 0 0 1 3.494-3.493 3.497 3.497 0 0 1 3.493 3.493 3.497 3.497 0 0 1 -3.493 3.494zm-18.423 18.496c.597 2.54 2.58 10.49 4.645 13.589 1.498 2.244 5.004 7.504 13.777 7.504 8.774 0 12.28-5.26 13.777-7.504 2.066-3.099 4.049-11.05 4.646-13.589a3.499 3.499 0 0 0 2.537-3.36v-4.657a1.165 1.165 0 0 0 -2.33 0v4.658c0 .641-.522 1.164-1.164 1.164-.546 0-1.018.38-1.136.912-.011.055-.655 2.917-1.578 6.088-.024 0-.045-.013-.07-.013-.086 0-8.699-.026-14.248-2.247-.28-.109-.587-.109-.867 0-5.54 2.217-14.145 2.247-14.23 2.247-.03 0-.057.015-.087.017a111.93 111.93 0 0 1 -1.579-6.092 1.164 1.164 0 0 0 -1.136-.912 1.166 1.166 0 0 1 -1.165-1.164v-4.659a1.165 1.165 0 0 0 -2.328 0v4.658a3.498 3.498 0 0 0 2.535 3.36zm18.423 4.875c5.087 1.9 11.94 2.192 14.042 2.236-.682 2.087-1.448 4.052-2.203 5.185-1.4 2.1-4.312 6.468-11.84 6.468-7.527 0-10.44-4.369-11.839-6.468-.755-1.132-1.52-3.097-2.202-5.184 2.079-.044 8.942-.333 14.042-2.237z"/><path d="m69.805 68.331-1.164-3.493c-1.424-4.267-5.145-6.591-20.625-6.618-.953-.475-4.412-2.207-4.412-2.207a1.169 1.169 0 0 0 -1.279.159l-7.392 6.336-7.393-6.336a1.167 1.167 0 0 0 -1.279-.159l-4.412 2.208c-1.063.001-2.065.015-3.02.038-.066-.011-.127-.04-.198-.04-.093 0-.175.033-.262.053-12.572.36-15.833 2.64-17.144 6.566l-1.165 3.493a1.165 1.165 0 0 0 2.21.736l1.165-3.493c.637-1.907 1.49-4.448 14.032-4.94v.08c-2.003.52-3.493 2.329-3.493 4.492a4.662 4.662 0 0 0 4.657 4.658 4.662 4.662 0 0 0 4.658-4.658c0-2.163-1.49-3.971-3.494-4.492v-.142c.742-.014 1.506-.022 2.319-.022h.01c.18 0 .36-.042.52-.122l3.968-1.986 7.156 6.136v4.121a1.165 1.165 0 0 0 2.329 0v-4.122l7.156-6.135c2.905 1.452 3.964 1.972 4.488 2.072v.035c17.013 0 17.981 2.905 18.69 5.025l1.164 3.493a1.166 1.166 0 0 0 2.21-.736zm-48.845-3.125a2.331 2.331 0 0 1 -2.329 2.329 2.331 2.331 0 0 1 -2.329-2.329 2.331 2.331 0 0 1 2.33-2.329 2.331 2.331 0 0 1 2.328 2.33z"/></g><path d="m38.426 30.274a1.165 1.165 0 0 0 0 2.33h1.164a1.165 1.165 0 0 0 2.329 0h1.164a1.165 1.165 0 0 0 0-2.33zm-11.644 0a1.165 1.165 0 0 0 0 2.33h1.164a1.165 1.165 0 0 0 2.329 0h1.164a1.165 1.165 0 0 0 0-2.33z"/></g></svg>