<svg height="80" viewBox="0 0 47 80" width="47" xmlns="http://www.w3.org/2000/svg"><g fill="#323848" fill-rule="evenodd"><path d="m7.742 65.448c0-.818.145-1.624.435-2.392l-2.417-.906a9.348 9.348 0 0 0 -.599 3.297c0 5.178 4.213 9.39 9.391 9.39v-2.58a6.819 6.819 0 0 1 -6.81-6.81zm-.405-6.011 1.829-2.197 1.983 1.65-1.828 2.197z"/><path d="m46.452 43.115a3.119 3.119 0 0 0 -3.115-3.115c-.82 0-1.623.333-2.203.912l-1.134 1.134c-.69.688-1.89.688-2.58 0l-.757-.756c-1.663-1.664-4.566-1.664-6.23 0l-.756.756c-.69.688-1.89.688-2.58 0l-.756-.756c-1.664-1.664-4.567-1.664-6.23 0l-.756.756c-.69.688-1.89.688-2.58 0l-.757-.756c-1.663-1.664-4.566-1.664-6.23 0l-.756.756c-.69.688-1.89.688-2.58 0l-1.134-1.134a3.136 3.136 0 0 0 -2.203-.912 3.119 3.119 0 0 0 -3.115 3.115c0 4.1 2.184 7.957 5.7 10.068l.087.052-2.411 2.895a14.569 14.569 0 0 0 -3.376 9.318c0 8.023 6.53 14.552 14.552 14.552h17.346c8.025 0 14.554-6.53 14.554-14.552 0-3.4-1.2-6.707-3.373-9.316l-2.413-2.897.085-.052a11.802 11.802 0 0 0 5.7-10.068zm-43.871 0c0-.436.606-.686.912-.378l1.134 1.134c1.663 1.663 4.567 1.663 6.23 0l.756-.756c.69-.688 1.89-.688 2.58 0l.757.756c1.663 1.663 4.566 1.663 6.23 0l.755-.756c.691-.688 1.89-.688 2.581 0l.756.756c1.663 1.663 4.567 1.663 6.23 0l.756-.756c.69-.688 1.89-.688 2.58 0l.757.756c1.663 1.663 4.566 1.663 6.23 0l1.134-1.134c.306-.308.912-.058.912.378a9.208 9.208 0 0 1 -4.447 7.855l-1.072.643h-4.91a3.377 3.377 0 0 0 -3.272-2.58c-.52 0-1.045.123-1.51.355l-1.563.782-1.563-.78a3.398 3.398 0 0 0 -1.51-.358 3.376 3.376 0 0 0 -3.273 2.58h-12.652l-1.07-.642a9.207 9.207 0 0 1 -4.448-7.855zm21.8 10.995c-.5.255-1.155-.151-1.155-.714v-.985a.798.798 0 0 1 1.153-.714l2.413 1.206zm3.02-1.207 2.412-1.206c.502-.252 1.155.15 1.155.714v.985c0 .564-.655.965-1.155.714l-2.413-1.207zm16.47 12.545c0 6.6-5.37 11.971-11.971 11.971h-17.348c-6.6 0-11.971-5.37-11.971-11.971 0-2.796.986-5.518 2.775-7.664l2.991-3.59h12.404a3.377 3.377 0 0 0 3.272 2.58c.2 0 .397-.033.594-.07l-2.577 6.013 2.372 1.016 2.47-5.766 2.85 9.499 2.472-.74-3.038-10.126c.327.103.663.174 1.004.174a3.376 3.376 0 0 0 3.273-2.58h4.661l2.992 3.59a11.99 11.99 0 0 1 2.775 7.664z" fill-rule="nonzero"/><path d="m24.516 27.097h-2.58c-.712 0-1.29-.58-1.29-1.29h-2.581a3.876 3.876 0 0 0 3.87 3.87v2.581h2.581v-2.58a3.876 3.876 0 0 0 3.871-3.872 3.876 3.876 0 0 0 -3.87-3.87h-2.582c-.711 0-1.29-.58-1.29-1.29 0-.712.579-1.291 1.29-1.291h2.581c.712 0 1.29.58 1.29 1.29h2.581a3.876 3.876 0 0 0 -3.87-3.87v-2.581h-2.582v2.58a3.876 3.876 0 0 0 -3.87 3.871 3.876 3.876 0 0 0 3.87 3.871h2.581c.712 0 1.29.58 1.29 1.29 0 .711-.578 1.29-1.29 1.29z"/><path d="m9.098 21.935h-3.938v2.581h3.937c.092 1.01.283 1.99.574 2.927l-8.396 3.477.988 2.385 8.408-3.483c2.378 4.511 7.11 7.596 12.555 7.596s10.177-3.085 12.556-7.596l8.408 3.483.988-2.385-8.398-3.478c.293-.938.483-1.918.575-2.927h3.935v-2.58h-3.936a14.161 14.161 0 0 0 -.575-2.927l8.398-3.479-.988-2.384-8.408 3.483a14.298 14.298 0 0 0 -1.656-2.48l2.786-2.785-1.825-1.825-2.785 2.786a14.297 14.297 0 0 0 -2.478-1.655l3.483-8.408-2.385-.989-3.478 8.4a14.079 14.079 0 0 0 -2.927-.575v-3.937h-2.58v3.937a14.19 14.19 0 0 0 -2.928.574l-3.479-8.399-2.384.989 3.482 8.408a14.249 14.249 0 0 0 -2.478 1.655l-2.785-2.786-1.825 1.825 2.786 2.785a14.188 14.188 0 0 0 -1.655 2.48l-8.408-3.483-.989 2.384 8.398 3.479a14.16 14.16 0 0 0 -.573 2.926zm14.128-10.322c6.404 0 11.613 5.21 11.613 11.613 0 6.402-5.21 11.613-11.613 11.613-6.404 0-11.613-5.21-11.613-11.613s5.21-11.613 11.613-11.613z" fill-rule="nonzero"/><path d="m21.935 0h2.581v2.58h-2.58zm-16.045 7.714 1.825-1.825 1.825 1.825-1.825 1.826zm-5.89 14.221h2.58v2.581h-2.58zm43.871 0h2.58v2.581h-2.58zm-6.961-14.22 1.825-1.824 1.824 1.824-1.824 1.826z"/></g></svg>