<?xml version="1.0" encoding="UTF-8"?>
<svg xmlns="http://www.w3.org/2000/svg" xmlns:xlink="http://www.w3.org/1999/xlink" width="15pt" height="20pt" viewBox="0 0 15 20" version="1.1">
<g id="surface1">
<path  d="M 7.5 0 C 4.460938 0 2 3.285156 2 7.332031 C 2 11.273438 7.089844 19.53125 7.308594 19.878906 C 7.355469 19.957031 7.425781 20 7.5 20 C 7.574219 20 7.644531 19.957031 7.691406 19.878906 C 7.910156 19.53125 13 11.273438 13 7.332031 C 13 3.285156 10.539062 0 7.5 0 Z M 7.5 19.136719 C 6.558594 17.570312 2.5 10.625 2.5 7.332031 C 2.503906 3.652344 4.738281 0.671875 7.5 0.667969 C 10.261719 0.671875 12.496094 3.652344 12.5 7.332031 C 12.5 10.625 8.441406 17.570312 7.5 19.136719 Z M 7.5 19.136719 "/>
<path  d="M 10.902344 6.070312 L 7.652344 2.734375 C 7.5625 2.644531 7.4375 2.644531 7.347656 2.734375 L 4.097656 6.070312 C 3.988281 6.183594 3.96875 6.390625 4.050781 6.535156 C 4.097656 6.617188 4.171875 6.667969 4.25 6.667969 L 5 6.667969 L 5 10.332031 C 5 10.515625 5.113281 10.667969 5.25 10.667969 L 9.75 10.667969 C 9.886719 10.667969 10 10.515625 10 10.332031 L 10 6.667969 L 10.75 6.667969 C 10.886719 6.667969 11 6.515625 11 6.332031 C 11 6.230469 10.964844 6.132812 10.902344 6.070312 Z M 8 10 L 7 10 L 7 8 L 8 8 Z M 9.75 6 C 9.613281 6 9.5 6.148438 9.5 6.332031 L 9.5 10 L 8.5 10 L 8.5 7.667969 C 8.5 7.484375 8.386719 7.332031 8.25 7.332031 L 6.75 7.332031 C 6.613281 7.332031 6.5 7.484375 6.5 7.667969 L 6.5 10 L 5.5 10 L 5.5 6.332031 C 5.5 6.148438 5.386719 6 5.25 6 L 4.984375 6 L 7.5 3.421875 L 10.015625 6 Z M 9.75 6 "/>
</g>
</svg>
