<svg id="Layer_1" data-name="Layer 1" xmlns="http://www.w3.org/2000/svg" viewBox="0 0 135.81 24.53"><defs><style>.cls-1{fill:#691c32;}</style></defs><path class="cls-1" d="M35.71,23.51h-2l-.44,1H33L34.57,21h.26l1.61,3.5h-.28Zm-.09-.21-.92-2-.92,2Z"/><path class="cls-1" d="M41.15,21l-1.56,3.5h-.25L37.78,21h.28l1.41,3.17L40.89,21Z"/><path class="cls-1" d="M43.41,24.14A1.6,1.6,0,0,1,43.05,23V21h.25v2a1.37,1.37,0,0,0,.3,1,1.1,1.1,0,0,0,.85.32A1.12,1.12,0,0,0,45.3,24a1.37,1.37,0,0,0,.3-1V21h.25v2a1.56,1.56,0,0,1-.37,1.13,1.57,1.57,0,0,1-2.07,0Z"/><path class="cls-1" d="M49.37,22.78l-.79.8v.92h-.25V21h.25v2.25L50.77,21h.31l-1.54,1.59,1.64,1.91h-.31Z"/><path class="cls-1" d="M55.29,23.51h-2l-.44,1h-.28L54.15,21h.26L56,24.5h-.28Zm-.09-.21-.92-2-.92,2Z"/><path class="cls-1" d="M58.61,21.23H57.35V21h2.77v.23H58.86V24.5h-.25Z"/><path class="cls-1" d="M62,21h.25v3.27h2v.23H62Z"/><path class="cls-1" d="M66.25,21h.25v3.5h-.25Z"/><path class="cls-1" d="M70.05,22.78l-.79.8v.92H69V21h.25v2.25L71.45,21h.31l-1.54,1.59,1.64,1.91h-.31Z"/><path class="cls-1" d="M77.75,23a.85.85,0,0,1,.19.58.82.82,0,0,1-.32.69,1.63,1.63,0,0,1-1,.24H75.09V21h1.46a1.52,1.52,0,0,1,.89.23.79.79,0,0,1,.32.66.8.8,0,0,1-.16.51.91.91,0,0,1-.43.3A1,1,0,0,1,77.75,23Zm-2.4-1.77v1.39h1.19a1.18,1.18,0,0,0,.71-.17.61.61,0,0,0,.25-.53.58.58,0,0,0-.25-.51,1.18,1.18,0,0,0-.71-.18Zm2.07,2.88a.69.69,0,0,0,0-1.09,1.35,1.35,0,0,0-.77-.18h-1.3v1.45h1.3A1.35,1.35,0,0,0,77.42,24.1Z"/><path class="cls-1" d="M80.47,24.14A1.6,1.6,0,0,1,80.11,23V21h.25v2a1.37,1.37,0,0,0,.3,1,1.29,1.29,0,0,0,1.7,0,1.37,1.37,0,0,0,.3-1V21h.25v2a1.56,1.56,0,0,1-.37,1.13,1.34,1.34,0,0,1-1,.39A1.36,1.36,0,0,1,80.47,24.14ZM81,20.53a.18.18,0,0,1-.06-.13.16.16,0,0,1,.06-.13.17.17,0,0,1,.12-.05.18.18,0,1,1,0,.36A.17.17,0,0,1,81,20.53Zm.86,0a.17.17,0,0,1,0-.26.17.17,0,0,1,.12-.05.21.21,0,0,1,.13.05.15.15,0,0,1,.05.13.17.17,0,0,1-.05.13.21.21,0,0,1-.13,0A.18.18,0,0,1,81.82,20.53Z"/><path class="cls-1" d="M87.82,24.5,87,23.33l-.34,0h-1V24.5h-.25V21h1.25a1.57,1.57,0,0,1,1,.31,1.07,1.07,0,0,1,.37.87,1.14,1.14,0,0,1-.21.7,1.11,1.11,0,0,1-.61.4l.88,1.22Zm-1.18-1.37a1.28,1.28,0,0,0,.86-.25,1,1,0,0,0,0-1.4,1.28,1.28,0,0,0-.86-.25h-1v1.9Z"/><path class="cls-1" d="M90.83,24.29a1.6,1.6,0,0,1-.65-.64,1.73,1.73,0,0,1-.24-.9,1.77,1.77,0,0,1,.24-.91,1.58,1.58,0,0,1,.65-.63,1.79,1.79,0,0,1,.93-.24,1.94,1.94,0,0,1,.93.23,1.81,1.81,0,0,1,.65.64,1.85,1.85,0,0,1,0,1.82,1.71,1.71,0,0,1-.65.63,1.84,1.84,0,0,1-.93.24A1.79,1.79,0,0,1,90.83,24.29Zm1.72-.2a1.41,1.41,0,0,0,.56-.55,1.59,1.59,0,0,0,0-1.58,1.41,1.41,0,0,0-.56-.55,1.6,1.6,0,0,0-.79-.2,1.64,1.64,0,0,0-.8.2,1.41,1.41,0,0,0-.56.55,1.59,1.59,0,0,0,0,1.58,1.41,1.41,0,0,0,.56.55,1.64,1.64,0,0,0,.8.2A1.6,1.6,0,0,0,92.55,24.09Z"/><path class="cls-1" d="M95.94,24.39a1.4,1.4,0,0,1-.55-.34l.12-.19a1.31,1.31,0,0,0,.5.32,1.75,1.75,0,0,0,.65.12,1.23,1.23,0,0,0,.76-.19.59.59,0,0,0,.25-.5.51.51,0,0,0-.13-.37A.79.79,0,0,0,97.2,23a2.75,2.75,0,0,0-.54-.16,4.52,4.52,0,0,1-.61-.19,1,1,0,0,1-.4-.27.76.76,0,0,1-.16-.51.84.84,0,0,1,.13-.46A.91.91,0,0,1,96,21.1a1.7,1.7,0,0,1,.69-.13,1.88,1.88,0,0,1,.57.09,1.65,1.65,0,0,1,.48.23l-.09.2a1.59,1.59,0,0,0-.46-.21,1.49,1.49,0,0,0-.5-.08,1.19,1.19,0,0,0-.74.19.65.65,0,0,0-.25.51.54.54,0,0,0,.14.38.93.93,0,0,0,.33.21l.55.16a6.16,6.16,0,0,1,.61.18,1,1,0,0,1,.4.28.74.74,0,0,1,.16.49.89.89,0,0,1-.14.47,1,1,0,0,1-.42.33,1.82,1.82,0,0,1-.7.13A2,2,0,0,1,95.94,24.39Z"/><path class="cls-1" d="M100.42,24.14a1.56,1.56,0,0,1-.37-1.13V21h.25v2a1.37,1.37,0,0,0,.3,1,1.29,1.29,0,0,0,1.7,0,1.37,1.37,0,0,0,.3-1V21h.25v2a1.56,1.56,0,0,1-.37,1.13,1.34,1.34,0,0,1-1,.39A1.33,1.33,0,0,1,100.42,24.14Z"/><path class="cls-1" d="M11.4,1.47A1.72,1.72,0,0,0,10,.86s0,0,0-.12,0-.13,0-.13l1,0c.54,0,1,0,1.26,0s.63,0,1.14,0l.92,0s0,0,0,.13,0,.12,0,.12A1.49,1.49,0,0,0,13,1.47a2.82,2.82,0,0,0-.45,1.7V9.05a5.21,5.21,0,0,1-.64,2.64,4.38,4.38,0,0,1-1.81,1.73,5.66,5.66,0,0,1-2.7.61,6,6,0,0,1-2.73-.6,4.39,4.39,0,0,1-1.85-1.72,5.13,5.13,0,0,1-.67-2.64V2.31A2.57,2.57,0,0,0,2,1.39.73.73,0,0,0,1.57,1a3.2,3.2,0,0,0-1-.12S.49.82.49.74.51.61.55.61l1.09,0c.62,0,1.11,0,1.49,0s.94,0,1.56,0l1,0s.06,0,.06.13,0,.12-.06.12a2.92,2.92,0,0,0-1,.13.67.67,0,0,0-.45.43,2.67,2.67,0,0,0-.12.93v6a5.66,5.66,0,0,0,1,3.72,3.59,3.59,0,0,0,2.91,1.23,3.57,3.57,0,0,0,2.79-1.1,4.45,4.45,0,0,0,1-3.12V3.17A2.69,2.69,0,0,0,11.4,1.47Z"/><path class="cls-1" d="M29.4,3.53s0,.05-.11.06-.13,0-.14,0a2.71,2.71,0,0,0-2.92-2.39h-.84a1.66,1.66,0,0,0-1.07.27,1.13,1.13,0,0,0-.31.9V6.89h1.72c1.57,0,2.35-.53,2.35-1.58,0,0,0,0,.13,0s.12,0,.12,0l0,1.85c0,.44,0,.76,0,1l0,1.09s0,.06-.12.06-.13,0-.13-.06c0-1.19-.8-1.79-2.41-1.79H24V12a2.2,2.2,0,0,0,.16,1,1.05,1.05,0,0,0,.67.43,6.91,6.91,0,0,0,1.52.12s0,0,0,.13,0,.12,0,.12c-.58,0-1,0-1.35,0l-2.05,0-1.54,0c-.26,0-.63,0-1.11,0q-.06,0-.06-.12c0-.09,0-.13.06-.13a4.2,4.2,0,0,0,1.1-.1.7.7,0,0,0,.47-.41A2.51,2.51,0,0,0,22,12V2.31a2.57,2.57,0,0,0-.12-.92A.64.64,0,0,0,21.44,1a3.23,3.23,0,0,0-1-.12s-.06,0-.06-.12,0-.13.06-.13h8.74c.14,0,.21.06.21.19Z"/><path class="cls-1" d="M46.82,1.47A1.71,1.71,0,0,0,45.4.86s0,0,0-.12,0-.13,0-.13l1,0c.53,0,1,0,1.26,0s.63,0,1.13,0l.93,0s0,0,0,.13,0,.12,0,.12a1.47,1.47,0,0,0-1.27.61A2.82,2.82,0,0,0,48,3.17V9.05a5.32,5.32,0,0,1-.64,2.64,4.38,4.38,0,0,1-1.81,1.73,5.72,5.72,0,0,1-2.7.61,6,6,0,0,1-2.73-.6,4.36,4.36,0,0,1-1.86-1.72,5.12,5.12,0,0,1-.66-2.64V2.31a2.57,2.57,0,0,0-.12-.92A.72.72,0,0,0,37,1a3.09,3.09,0,0,0-1-.12s-.07,0-.07-.12,0-.13.07-.13l1.09,0c.61,0,1.11,0,1.49,0s.94,0,1.55,0l1,0s.07,0,.07.13,0,.12-.07.12a3,3,0,0,0-1,.13.71.71,0,0,0-.45.43,2.72,2.72,0,0,0-.11.93v6a5.6,5.6,0,0,0,1,3.72,4.07,4.07,0,0,0,5.7.13,4.45,4.45,0,0,0,1-3.12V3.17A2.63,2.63,0,0,0,46.82,1.47Z"/><path class="cls-1" d="M68.8,13.61q0,.12-.06.12H66.38l-.82,0a1,1,0,0,1-.5-.13,2.2,2.2,0,0,1-.48-.46c-.19-.23-.52-.67-1-1.33l-.86-1.15L59.79,6.87l-.53.54V12a3.06,3.06,0,0,0,.11,1,.64.64,0,0,0,.43.4,3.74,3.74,0,0,0,1,.1s.08,0,.08.13,0,.12-.08.12c-.45,0-.81,0-1.07,0l-1.53,0-1.5,0c-.26,0-.63,0-1.11,0,0,0,0,0,0-.12s0-.13,0-.13a3.74,3.74,0,0,0,1-.1.68.68,0,0,0,.45-.41,2.51,2.51,0,0,0,.13-.94V2.31a2.57,2.57,0,0,0-.12-.92A.66.66,0,0,0,56.68,1a3.27,3.27,0,0,0-1-.12s0,0,0-.12,0-.13,0-.13l1.12,0c.61,0,1.1,0,1.47,0s.93,0,1.55,0l1.05,0s.06,0,.06.13,0,.12-.06.12a2.89,2.89,0,0,0-1,.13.7.7,0,0,0-.44.43,2.67,2.67,0,0,0-.12.93V6.78l4.12-4.16A1.77,1.77,0,0,0,64,1.53.55.55,0,0,0,63.71,1a2,2,0,0,0-1-.18s0,0,0-.12,0-.13,0-.13l1,0c.61,0,1.17,0,1.68,0s1.09,0,1.65,0l.91,0s.06,0,.06.13,0,.12-.06.12a4.89,4.89,0,0,0-2,.51,6.89,6.89,0,0,0-2,1.38L61.22,5.44,64.3,9.53c1,1.31,1.67,2.23,2.16,2.77a4.11,4.11,0,0,0,1.14,1,2.76,2.76,0,0,0,1.14.19S68.8,13.52,68.8,13.61Z"/><path class="cls-1" d="M75.91,1.84a5,5,0,0,0-1.27,2.38s0,0-.12,0-.11,0-.11-.06c0-.55.11-1.25.18-2.11S74.7.58,74.7.15A.1.1,0,0,1,74.81,0c.08,0,.12,0,.12.11,0,.31.39.46,1.18.46,1.2,0,2.61.06,4.22.06.82,0,1.7,0,2.62,0l1.43,0A4.67,4.67,0,0,0,85.55.5.65.65,0,0,0,86,.08s0-.08.12-.08.11,0,.11.08c0,.44-.08,1.1-.13,2s-.06,1.59-.06,2.14c0,0,0,.06-.11.06s-.13,0-.14-.06a4,4,0,0,0-1-2.38,2.87,2.87,0,0,0-2.1-.77,2.66,2.66,0,0,0-.87.11.59.59,0,0,0-.38.36,2.79,2.79,0,0,0-.09.83V12a2.73,2.73,0,0,0,.12,1,.76.76,0,0,0,.51.4,4.91,4.91,0,0,0,1.19.1s.07,0,.07.13,0,.12-.07.12c-.49,0-.87,0-1.15,0l-1.72,0-1.64,0c-.29,0-.7,0-1.22,0,0,0,0,0,0-.12s0-.13,0-.13a5.1,5.1,0,0,0,1.21-.1A.74.74,0,0,0,79.2,13a2.47,2.47,0,0,0,.14-.94V2.31a2.28,2.28,0,0,0-.1-.8.63.63,0,0,0-.38-.35A2.46,2.46,0,0,0,78,1.05,2.91,2.91,0,0,0,75.91,1.84Z"/><path class="cls-1" d="M102.29,10.42a.24.24,0,0,1,.12,0s0,0,0,.05a22.51,22.51,0,0,0-.21,2.92.38.38,0,0,1-.06.24.33.33,0,0,1-.25.07H92.82s-.06,0-.06-.12,0-.13.06-.13a3.69,3.69,0,0,0,1-.1A.65.65,0,0,0,94.3,13a2.78,2.78,0,0,0,.12-.94V2.31a2.57,2.57,0,0,0-.12-.92A.64.64,0,0,0,93.85,1a3.27,3.27,0,0,0-1-.12s-.06,0-.06-.12,0-.13.06-.13h8.74c.14,0,.21.06.21.19l0,2.73s0,.05-.11.06-.13,0-.14,0a2.71,2.71,0,0,0-2.92-2.39H97.8a1.66,1.66,0,0,0-1.07.27,1.16,1.16,0,0,0-.32.92V6.64h2q2.31,0,2.31-1.56s0-.06.12-.06.11,0,.11.06l0,1.83,0,1c0,.44,0,.81,0,1.09,0,0,0,0-.12,0s-.13,0-.13,0c0-1.21-.78-1.81-2.35-1.81h-2V12a1.39,1.39,0,0,0,.27,1,1.26,1.26,0,0,0,.93.27h1a3.38,3.38,0,0,0,3.57-2.73S102.24,10.42,102.29,10.42Z"/><path class="cls-1" d="M112.87,12.93a.94.94,0,0,0,.61.43,6,6,0,0,0,1.41.12s.07,0,.07.13,0,.12-.07.12c-.57,0-1,0-1.34,0l-1.83,0-1.51,0c-.26,0-.63,0-1.09,0q-.06,0-.06-.12c0-.09,0-.13.06-.13a3.61,3.61,0,0,0,1-.1.68.68,0,0,0,.43-.4,2.78,2.78,0,0,0,.11-1V2.31a2.62,2.62,0,0,0-.11-.92.67.67,0,0,0-.44-.41,3.2,3.2,0,0,0-1-.12s-.06,0-.06-.12,0-.13.06-.13l1.09,0c.62,0,1.12,0,1.49,0s.72,0,1.18-.06l.68,0c.29,0,.63,0,1,0a5.46,5.46,0,0,1,3.29.88,3.14,3.14,0,0,1,1.2,2.71,3.61,3.61,0,0,1-.68,2.24,4.16,4.16,0,0,1-1.74,1.39,5.37,5.37,0,0,1-2.18.46,3.89,3.89,0,0,1-1-.1s-.07,0-.07-.11a.28.28,0,0,1,0-.12c0-.05,0-.06.07-.05a2.81,2.81,0,0,0,.73.09,2.32,2.32,0,0,0,1.85-.9,3.92,3.92,0,0,0,.76-2.59,3.85,3.85,0,0,0-.78-2.57A2.66,2.66,0,0,0,114,1a2.2,2.2,0,0,0-.77.1.63.63,0,0,0-.36.39,2.5,2.5,0,0,0-.11.89V12A2.2,2.2,0,0,0,112.87,12.93Z"/><path class="cls-1" d="M135.16,10.42a.27.27,0,0,1,.12,0l.05.05a22.51,22.51,0,0,0-.21,2.92.33.33,0,0,1-.07.24c0,.05-.12.07-.25.07h-9.11s-.06,0-.06-.12,0-.13.06-.13a3.79,3.79,0,0,0,1-.1.67.67,0,0,0,.44-.41,2.82,2.82,0,0,0,.11-.94V2.31a2.62,2.62,0,0,0-.11-.92.68.68,0,0,0-.45-.41,3.31,3.31,0,0,0-1-.12s-.06,0-.06-.12,0-.13.06-.13h8.73c.14,0,.21.06.21.19l.05,2.73s0,.05-.12.06-.12,0-.14,0a2.69,2.69,0,0,0-2.91-2.39h-.84a1.67,1.67,0,0,0-1.08.27,1.16,1.16,0,0,0-.31.92V6.64h2q2.31,0,2.31-1.56s0-.06.11-.06.12,0,.12.06l0,1.83,0,1c0,.44,0,.81,0,1.09,0,0,0,0-.13,0s-.12,0-.12,0c0-1.21-.79-1.81-2.36-1.81h-2V12a1.44,1.44,0,0,0,.26,1,1.3,1.3,0,0,0,.94.27h1a3.39,3.39,0,0,0,3.57-2.73S135.1,10.42,135.16,10.42Z"/><polygon class="cls-1" points="27.52 23.01 12.24 23.01 15.09 22.51 30.35 22.51 27.52 23.01"/><polygon class="cls-1" points="120.74 23.01 105.47 23.01 108.31 22.51 123.57 22.51 120.74 23.01"/></svg>